<svg width="295" height="140" xmlns="http://www.w3.org/2000/svg">
 <metadata id="metadata8">image/svg+xml</metadata>
 <defs>
  <clipPath id="clipPath16">
   <path id="path18" d="m0,0l612,0l0,792l-612,0l0,-792z"/>
  </clipPath>
  <clipPath id="clipPath34">
   <path id="path36" d="m0.302171,-37.574695l233.992,1.94l-1.245,150.198l-233.993,-1.941l1.246,-150.197z"/>
  </clipPath>
  <clipPath id="clipPath42">
   <path id="path44" d="m-321.186829,-204.391634l612,0l0,792l-612,0l0,-792z"/>
  </clipPath>
  <clipPath id="clipPath78">
   <path id="path80" d="m0,0l612,0l0,792l-612,0l0,-792z"/>
  </clipPath>
 </defs>
 <g>
  <title>background</title>
  <rect fill="none" id="canvas_background" height="602" width="802" y="-1" x="-1"/>
 </g>
 <g>
  <title>Layer 1</title>
  <g id="g10" transform="matrix(1.25,0,0,-1.25,0,140) ">
   <g id="g30">
    <g id="g32" clip-path="url(#clipPath34)">
     <g id="g38">
      <g id="g40" clip-path="url(#clipPath42)">
       <g id="g46">
        <path fill="#49a0dd" fill-rule="nonzero" id="path48" d="m231.666382,93.153166l-0.14,16.928l-42.187,-0.35l0.14,-16.928l9.587,0.08l-16.915,-21.226l-17.283,20.942l9.628,0.08l-0.14,16.927l-31.517,-0.261l0.157,-18.953l27.516,-33.34l-26.958,-33.827l0.028,-3.381l12.986,0.108l0.144,-17.348l18.53,0.154l-0.144,17.348l-10.725,-0.089l18.03,22.625l0.001,0l18.423,-22.323l-10.746,-0.089l0.144,-17.348l42.187,0.35l-0.144,17.348l-7.912,-0.066l-30.313,36.733l28.555,35.831l9.068,0.075"/>
       </g>
       <g id="g50">
        <path fill="#2c67aa" fill-rule="nonzero" id="path52" d="m131.972656,109.254973l0.14,-16.928l9.224,0.077l1.66,-2.011l-0.157,18.952l-10.867,-0.09"/>
       </g>
       <g id="g54">
        <path fill="#2c67aa" fill-rule="nonzero" id="path56" d="m143.581879,19.844573l-0.028,3.381l-2.712,-3.404l-8.127,-0.067l0.144,-17.348l23.854,0.198l-0.144,17.348l-12.987,-0.108"/>
       </g>
       <g id="g58">
        <path fill="#731b2b" fill-rule="nonzero" id="path60" d="m64.928284,27.149168l14.979,0.124c-1.741,-4.411 -4.2,-8.441 -7.247,-11.931c-3.209,3.438 -5.838,7.426 -7.732,11.807"/>
       </g>
       <g id="g62">
        <path fill="#731b2b" fill-rule="nonzero" id="path64" d="m64.770172,50.344573l-2.673,-0.022c-0.38,-2.309 -0.569,-4.682 -0.549,-7.101c0.019,-2.282 0.222,-4.519 0.596,-6.698l2.851,0.023c0.569,2.133 0.862,4.385 0.843,6.71c-0.02,2.469 -0.392,4.85 -1.068,7.088zm0,0c0.676,-2.238 1.048,-4.619 1.068,-7.088c0.019,-2.325 -0.274,-4.577 -0.843,-6.71l14.585,0.121c-0.632,2.123 -0.978,4.369 -0.997,6.695c-0.021,2.469 0.33,4.855 1.001,7.105l-14.814,-0.123zm7.426,20.936c-4.248,-4.708 -7.428,-10.397 -9.161,-16.68c0.704,-1.346 1.287,-2.77 1.735,-4.256l14.814,0.123c0.436,1.47 1.011,2.882 1.707,4.221c-1.753,6.28 -4.896,11.938 -9.095,16.592"/>
       </g>
       <g id="g66">
        <path fill="#868484" fill-rule="nonzero" id="path68" d="m63.035278,54.600554c-0.388,-1.397 -0.701,-2.826 -0.938,-4.278l2.673,0.022c-0.449,1.486 -1.031,2.91 -1.735,4.256zm63.593,-44.768l0.062,-7.477l6.169,0.051l-0.108,12.962c-1.846,-2.05 -3.895,-3.906 -6.123,-5.536zm14.709,82.571l-9.224,-0.076l-0.141,16.927l-17.421,-0.144l0.14,-16.928l11.253,0.094l0.121,-14.592c-6.582,4.652 -14.642,7.347 -23.466,7.274c-12.078,-0.1 -22.906,-5.363 -30.403,-13.678c4.199,-4.654 7.342,-10.312 9.095,-16.592c3.991,7.682 11.991,12.958 21.252,13.035c13.344,0.111 23.693,-10.621 23.803,-23.965l0.002,-0.132c0.043,-13.284 -10.104,-24.114 -23.405,-24.225c-9.26,-0.076 -17.347,5.066 -21.465,12.681c0,0 0,0 0,0c-0.782,1.446 -1.421,2.981 -1.898,4.585l-17.436,-0.144c0.271,-1.586 0.632,-3.139 1.079,-4.656c0.474,-1.616 1.045,-3.191 1.705,-4.718l14.979,0.124c-1.741,-4.411 -4.2,-8.441 -7.247,-11.932c7.634,-8.189 18.548,-13.271 30.625,-13.171c8.825,0.073 16.839,2.901 23.343,7.662c2.228,1.63 4.277,3.486 6.123,5.536l-0.036,4.386l8.126,0.067l2.713,3.404l-0.558,67.167l-1.659,2.011"/>
       </g>
       <g id="g70">
        <path fill="#cf1f65" fill-rule="nonzero" id="path72" d="m42.090485,84.456572c-20.443,-0.17 -37.301,-15.127 -40.503,-34.636l17.488,0.145c2.947,9.905 12.084,17.166 22.959,17.256c9.234,0.077 17.035,-5.039 21.001,-12.621c1.733,6.283 4.913,11.972 9.161,16.68c-7.382,8.191 -18.028,13.276 -30.106,13.176zm17.984,-57.348c-4.233,-4.982 -10.48,-8.149 -17.639,-8.208c-11.019,-0.092 -20.375,7.207 -23.364,17.266l43.073,0.357c-0.374,2.179 -0.577,4.416 -0.596,6.698c-0.02,2.419 0.168,4.792 0.549,7.101l-60.51,-0.502c-0.38,-2.309 -0.569,-4.682 -0.549,-7.101c0.019,-2.282 0.222,-4.519 0.596,-6.698l0,0c3.366,-19.648 20.563,-34.524 41.143,-34.353c12.077,0.1 22.638,5.361 29.883,13.673c-3.209,3.439 -5.838,7.426 -7.732,11.808l-4.854,-0.041zm22.162,23.381c-0.246,1.426 -0.562,2.828 -0.945,4.199c-0.697,-1.339 -1.271,-2.751 -1.707,-4.221c-0.672,-2.25 -1.022,-4.636 -1.002,-7.105c0.02,-2.326 0.366,-4.572 0.998,-6.695l2.834,0.024c0.32,2.185 0.477,4.425 0.458,6.706c-0.02,2.419 -0.236,4.789 -0.636,7.092"/>
       </g>
      </g>
     </g>
    </g>
   </g>
  </g>
 </g>
</svg>