<?xml version="1.0" standalone="no"?>
<!DOCTYPE svg PUBLIC "-//W3C//DTD SVG 20010904//EN"
 "http://www.w3.org/TR/2001/REC-SVG-20010904/DTD/svg10.dtd">
<svg version="1.0" xmlns="http://www.w3.org/2000/svg"
 width="365.000000pt" height="96.000000pt" viewBox="0 0 365.000000 96.000000"
 preserveAspectRatio="xMidYMid meet">

<g transform="translate(0.000000,96.000000) scale(0.100000,-0.100000)"
fill="#000000" stroke="none">
<path d="M220 843 c-52 -27 -63 -60 -67 -202 -3 -113 -6 -128 -27 -156 l-23
-30 24 -31 c22 -29 24 -43 28 -156 4 -137 12 -169 51 -194 31 -21 115 -25 121
-6 3 6 -2 12 -11 12 -8 0 -27 11 -42 24 -27 23 -28 27 -35 161 -6 119 -10 139
-28 159 -26 28 -26 34 2 64 20 21 22 36 27 159 5 133 5 135 33 159 15 13 35
24 43 24 9 0 14 6 12 13 -7 19 -69 19 -108 0z"/>
<path d="M781 851 c-11 -7 -4 -14 26 -30 54 -27 63 -57 63 -197 0 -105 2 -115
24 -141 l25 -28 -22 -23 c-19 -21 -22 -38 -27 -155 -7 -147 -15 -172 -66 -193
-42 -18 -36 -34 12 -34 47 0 100 23 115 52 9 14 16 75 19 160 5 124 7 139 28
160 27 30 27 36 0 66 -21 21 -23 36 -28 160 -5 109 -10 143 -24 164 -25 38
-110 61 -145 39z"/>
<path d="M2632 638 c-31 -31 10 -83 56 -71 26 6 39 47 22 68 -15 18 -61 20
-78 3z"/>
<path d="M341 542 c-42 -21 -74 -82 -43 -82 10 0 24 11 30 25 21 46 102 43
117 -4 7 -24 35 -28 35 -5 0 29 -21 56 -55 70 -43 18 -43 18 -84 -4z"/>
<path d="M674 550 c-25 -10 -64 -57 -64 -76 0 -24 25 -15 48 16 16 22 31 30
52 30 21 0 36 -8 52 -30 12 -16 28 -30 35 -30 34 0 -6 74 -48 89 -37 13 -46
13 -75 1z"/>
<path d="M1325 536 c-54 -23 -85 -70 -85 -128 0 -83 42 -130 127 -144 68 -11
133 21 133 66 0 7 -20 9 -63 4 -54 -5 -65 -4 -87 15 l-25 20 45 1 c75 0 116
16 130 50 19 45 -2 88 -54 111 -48 22 -80 23 -121 5z m85 -71 c17 -20 10 -26
-39 -32 -44 -6 -52 4 -25 31 20 20 48 20 64 1z"/>
<path d="M1933 543 c-36 -7 -80 -56 -93 -103 -27 -100 54 -187 164 -177 38 3
55 11 73 31 35 42 30 47 -40 40 -53 -5 -66 -3 -86 13 l-24 20 67 5 c81 7 106
25 106 78 0 69 -75 111 -167 93z m74 -79 c7 -20 -13 -34 -49 -34 -30 0 -37 17
-16 38 17 17 58 15 65 -4z"/>
<path d="M2203 535 c-40 -17 -48 -44 -47 -145 1 -96 13 -120 59 -120 l34 0 3
98 3 97 38 9 c31 8 36 13 31 30 -13 46 -60 58 -121 31z"/>
<path d="M2431 532 c-48 -24 -73 -62 -78 -119 -8 -83 48 -143 133 -143 51 0
94 30 94 66 0 21 -3 23 -19 14 -52 -27 -121 3 -121 54 0 54 56 84 118 63 18
-7 22 -5 22 13 0 11 -11 32 -25 45 -29 30 -75 33 -124 7z"/>
<path d="M2864 531 c-45 -20 -54 -35 -54 -86 0 -40 17 -55 78 -70 28 -7 47
-18 47 -26 0 -18 -57 -24 -96 -10 -25 8 -29 7 -29 -7 0 -29 29 -61 65 -71 76
-21 155 26 155 93 0 41 -24 63 -85 79 -51 13 -59 24 -33 41 12 7 30 7 64 -2
26 -7 49 -11 51 -9 2 3 1 17 -3 32 -4 18 -18 32 -40 41 -44 18 -71 17 -120 -5z"/>
<path d="M3155 536 c-60 -27 -70 -48 -70 -153 0 -105 10 -123 67 -123 l27 0
-5 78 c-8 98 5 135 43 130 33 -4 41 -26 42 -118 1 -73 11 -90 53 -90 l28 0 0
79 c0 91 11 131 38 131 33 0 42 -21 42 -97 0 -84 20 -117 68 -111 27 3 27 3
26 88 0 101 -15 152 -52 176 -33 22 -100 22 -133 1 -24 -16 -27 -16 -64 3 -45
23 -68 24 -110 6z"/>
<path d="M1546 518 c3 -13 19 -40 34 -61 l28 -39 -34 -45 c-36 -47 -42 -71
-22 -91 24 -24 58 -14 73 21 20 49 25 50 67 6 32 -33 45 -40 70 -37 54 5 57
30 10 73 -23 20 -42 43 -42 50 0 7 14 30 30 51 41 51 38 88 -7 92 -24 2 -33
-1 -33 -11 0 -8 -9 -25 -19 -38 l-20 -24 -34 38 c-28 30 -42 37 -72 37 -33 0
-36 -2 -29 -22z"/>
<path d="M2624 504 c-11 -45 1 -180 19 -208 32 -49 119 -46 125 4 2 18 -4 28
-20 35 -21 9 -24 19 -28 90 -3 44 -9 86 -13 93 -5 6 -24 12 -42 12 -29 0 -36
-4 -41 -26z"/>
<path d="M470 310 c0 -71 94 -107 145 -55 14 13 25 31 25 39 0 8 3 21 6 30 4
12 0 16 -15 16 -15 0 -21 -6 -21 -23 0 -29 -29 -57 -58 -57 -28 0 -52 26 -52
56 0 15 -6 24 -15 24 -10 0 -15 -10 -15 -30z"/>
</g>
</svg>
