<svg version="1.0" xmlns="http://www.w3.org/2000/svg"
 width="1200.000000pt" height="200.000000pt" viewBox="0 0 1200.000000 200.000000"
 preserveAspectRatio="xMidYMid meet">

<g transform="translate(0.000000,200.000000) scale(0.100000,-0.100000)"
fill="#006401" stroke="none">
<path d="M0 1000 l0 -1000 6000 0 6000 0 0 1000 0 1000 -6000 0 -6000 0 0
-1000z m10034 634 c30 -12 16 -46 -49 -117 -149 -160 -207 -339 -184 -566 17
-165 70 -283 183 -409 66 -72 77 -97 54 -120 -26 -26 -59 -13 -117 46 -98 99
-157 205 -198 353 -13 48 -18 102 -18 214 0 138 2 157 29 238 43 131 140 281
220 339 40 29 53 32 80 22z m-9061 -33 c76 -37 120 -138 79 -179 -32 -32 -60
-18 -87 43 -18 41 -30 55 -55 64 -74 25 -158 4 -184 -48 -9 -17 -16 -55 -16
-91 l0 -60 88 0 c92 0 134 -13 140 -43 8 -38 -15 -47 -124 -47 l-104 0 0 -285
c0 -271 -1 -286 -20 -305 -20 -20 -47 -18 -62 4 -4 6 -8 140 -8 298 l0 287
-71 3 c-55 2 -74 7 -83 21 -21 34 4 52 78 55 l66 3 0 67 c0 37 5 84 11 105 14
51 64 104 114 123 58 21 179 14 238 -15z m4617 10 c6 -13 10 -183 10 -485 0
-409 -2 -466 -16 -480 -30 -31 -64 -12 -64 36 0 15 -2 28 -5 28 -3 0 -31 -14
-62 -32 -49 -28 -69 -33 -143 -36 -115 -6 -186 15 -246 70 -25 23 -48 56 -55
77 -6 22 -9 109 -7 223 l3 186 30 43 c45 64 109 92 217 97 103 5 161 -8 218
-49 l40 -29 0 173 c0 121 4 177 12 185 18 18 56 14 68 -7z m5731 -50 c76 -79
146 -205 181 -327 30 -104 33 -333 5 -432 -32 -118 -98 -231 -191 -330 -54
-57 -90 -76 -116 -62 -34 18 -23 45 54 130 132 145 179 270 178 469 -2 217
-48 334 -206 515 -39 45 -47 61 -42 81 5 20 13 25 39 25 26 0 43 -12 98 -69z
m-7349 0 c85 -41 138 -120 138 -206 0 -76 -67 -82 -91 -8 -41 127 -87 158
-226 151 -92 -5 -120 -19 -160 -77 -30 -44 -35 -102 -31 -346 3 -239 11 -267
80 -312 46 -31 157 -42 225 -24 54 15 100 61 109 109 10 56 31 84 57 76 29 -9
37 -22 37 -64 -1 -83 -77 -175 -168 -201 -26 -8 -90 -14 -142 -14 -84 0 -102
3 -152 28 -69 34 -113 77 -133 132 -14 35 -16 85 -13 320 3 271 4 282 27 328
27 56 73 94 144 119 74 27 232 20 299 -11z m3028 2 c84 -37 139 -117 140 -200
0 -36 -18 -73 -36 -73 -20 0 -44 26 -55 57 -38 118 -82 152 -200 153 -120 0
-179 -36 -205 -128 -13 -42 -15 -97 -12 -280 3 -212 5 -230 25 -268 32 -60 80
-86 167 -92 133 -8 196 25 222 116 19 68 32 83 62 76 26 -8 37 -40 29 -95 -16
-119 -151 -197 -321 -186 -95 6 -157 30 -215 82 -68 61 -73 91 -69 407 l3 273
29 53 c34 61 68 89 141 115 69 24 230 19 295 -10z m3511 -18 c103 -35 158
-111 189 -260 11 -54 25 -104 31 -112 15 -18 44 -17 60 3 13 15 10 32 -18 117
-19 60 115 -60 155 -139 49 -97 53 -242 8 -340 -40 -86 -161 -193 -189 -165
-7 7 1 22 26 50 58 64 70 95 65 172 -3 49 -9 76 -24 96 -31 42 -45 41 -33 -2
13 -46 -1 -65 -46 -65 -46 0 -59 21 -57 93 2 69 -17 113 -63 143 -32 21 -42
13 -21 -18 9 -12 16 -38 16 -56 0 -29 -11 -46 -70 -107 -39 -40 -75 -86 -80
-104 -19 -68 18 -169 76 -203 38 -23 46 -43 12 -32 -91 28 -180 102 -220 182
-18 37 -23 63 -23 122 1 83 13 115 102 253 71 111 93 164 93 228 0 46 -5 63
-30 97 -17 23 -35 42 -40 42 -6 0 -10 5 -10 10 0 15 40 12 91 -5z m-2799 -215
c50 -15 97 -56 119 -105 16 -34 19 -68 19 -237 0 -108 4 -208 9 -221 5 -13 23
-30 40 -36 41 -18 50 -75 12 -84 -27 -6 -115 23 -132 43 -17 19 -18 19 -84
-15 -59 -31 -75 -35 -145 -35 -179 0 -286 95 -265 236 22 148 197 219 403 165
l72 -19 -1 57 c-1 120 -39 160 -159 169 -141 10 -212 -21 -225 -98 -9 -51 -36
-68 -71 -45 -28 18 -31 49 -8 103 30 73 92 116 194 136 39 7 181 -2 222 -14z
m-5972 -8 c39 -21 80 -89 80 -135 0 -38 -17 -67 -39 -67 -23 0 -35 15 -51 63
-16 50 -35 67 -76 67 -45 0 -69 -12 -121 -63 l-43 -41 0 -202 0 -202 96 -4
c79 -2 98 -6 109 -21 9 -12 11 -27 6 -40 -8 -22 -12 -22 -241 -22 -211 0 -234
2 -244 18 -8 12 -8 22 0 35 9 13 30 18 95 22 l84 5 3 253 2 252 -78 0 c-84 0
-117 13 -110 45 6 32 47 45 141 45 99 0 122 -8 131 -45 l7 -26 32 25 c74 57
154 71 217 38z m690 -9 c89 -40 139 -117 148 -230 4 -48 1 -68 -12 -88 l-16
-25 -245 0 -245 0 0 -62 c0 -131 62 -181 223 -181 103 0 140 11 219 69 58 41
88 39 88 -6 0 -67 -102 -133 -230 -149 -89 -12 -202 0 -263 27 -52 23 -103 79
-116 129 -18 62 -14 347 5 391 29 70 99 123 187 142 69 15 207 5 257 -17z
m755 3 c89 -37 141 -117 152 -230 5 -51 2 -71 -11 -91 l-16 -25 -245 0 -245 0
0 -67 c0 -128 61 -176 225 -176 102 0 139 12 217 70 55 40 80 38 86 -9 4 -35
-38 -81 -101 -112 -99 -49 -289 -53 -390 -8 -52 23 -103 79 -116 129 -18 62
-14 347 5 391 29 70 99 123 187 142 63 13 206 5 252 -14z m1530 2 c57 -19 120
-83 135 -137 7 -29 10 -104 8 -215 -3 -142 -7 -177 -22 -206 -43 -82 -130
-119 -282 -120 -120 0 -190 18 -241 63 -58 51 -63 73 -63 287 0 199 4 223 49
274 20 23 79 53 128 66 51 12 238 5 288 -12z m1505 -5 c90 -40 140 -119 148
-236 8 -110 17 -107 -275 -107 l-243 0 0 -62 c0 -131 62 -181 223 -181 103 0
140 11 219 69 58 41 88 39 88 -6 0 -67 -102 -133 -230 -149 -89 -12 -202 0
-263 27 -52 23 -103 79 -116 129 -18 62 -14 347 5 391 29 70 99 123 187 142
69 15 207 5 257 -17z m1864 11 c9 -8 16 -22 16 -30 0 -20 8 -18 47 16 53 47
130 41 185 -15 l28 -27 35 30 c55 49 158 56 214 15 58 -43 61 -63 61 -361 0
-169 -4 -281 -10 -293 -12 -22 -52 -25 -68 -6 -7 8 -12 110 -14 284 -3 250 -4
273 -22 292 -32 35 -91 26 -143 -22 -23 -20 -23 -24 -23 -283 0 -229 -2 -265
-16 -279 -9 -9 -24 -15 -32 -13 -37 7 -42 45 -42 308 0 209 -3 259 -15 277
-29 41 -93 37 -142 -9 -23 -21 -23 -25 -23 -278 0 -215 -2 -259 -16 -278 -17
-24 -43 -29 -62 -10 -9 9 -12 99 -12 343 0 244 3 334 12 343 16 16 23 15 42
-4z m796 -22 c15 -30 17 -31 35 -17 36 27 145 55 214 55 134 0 235 -57 260
-145 6 -22 11 -117 11 -215 0 -190 -9 -229 -61 -277 -90 -83 -287 -89 -416
-13 l-33 19 0 -159 c0 -133 -3 -161 -16 -175 -22 -21 -46 -15 -61 15 -16 32
-19 884 -3 925 14 37 50 30 70 -13z m2192 -769 c24 -22 23 -39 -7 -68 l-24
-25 -414 0 c-272 0 -425 4 -445 11 -38 13 -49 42 -28 74 l16 25 442 0 c397 0
443 -2 460 -17z"/>
<path d="M5211 1240 c-18 -4 -45 -17 -60 -27 -49 -37 -56 -65 -56 -233 0 -173
6 -195 66 -225 90 -47 220 -38 300 21 l49 36 0 179 0 179 -39 26 c-73 48 -172
65 -260 44z"/>
<path d="M7477 956 c-66 -18 -89 -43 -95 -105 -4 -45 -2 -53 25 -80 70 -69
206 -67 306 5 l47 34 0 64 0 64 -45 11 c-75 19 -185 22 -238 7z"/>
<path d="M2166 1234 c-69 -25 -106 -74 -106 -139 l0 -35 215 0 215 0 0 23 c-1
30 -33 98 -58 120 -50 45 -186 61 -266 31z"/>
<path d="M2924 1234 c-62 -22 -96 -63 -102 -124 l-5 -50 218 0 217 0 -7 37
c-14 74 -47 115 -112 139 -49 17 -157 16 -209 -2z"/>
<path d="M4439 1241 c-41 -13 -75 -39 -87 -67 -19 -40 -16 -337 3 -374 25 -48
67 -63 181 -68 86 -4 108 -1 147 16 76 34 82 51 82 237 0 183 -8 209 -72 241
-42 20 -206 30 -254 15z"/>
<path d="M5956 1234 c-69 -25 -106 -74 -106 -139 l0 -35 215 0 215 0 0 23 c-1
30 -33 98 -58 120 -50 45 -186 61 -266 31z"/>
<path d="M9045 1245 c-5 -2 -22 -6 -36 -9 -14 -3 -47 -22 -72 -41 l-47 -36 0
-177 0 -177 43 -26 c62 -39 113 -53 192 -53 52 1 81 7 112 23 66 33 73 55 73
239 0 149 -1 161 -23 193 -16 24 -37 39 -72 51 -44 15 -142 23 -170 13z"/>
</g>
</svg>
