<svg version="1.0" xmlns="http://www.w3.org/2000/svg"
 width="1272.000000pt" height="1276.000000pt" viewBox="0 0 1272.000000 1276.000000"
 preserveAspectRatio="xMidYMid meet">
<g transform="translate(0.000000,1276.000000) scale(0.100000,-0.100000)"
fill="#000000" stroke="none">
<defs>
    <linearGradient id="grad1" x1="0%" y1="0%" x2="0%" y2="100%">
      <stop offset="0%" style="stop-color:rgb(113, 23, 234);stop-opacity:1" />
      <stop offset="100%" style="stop-color:rgb(234, 96, 96);stop-opacity:1" />
    </linearGradient>
</defs>
<path style="fill:url(#grad1);" d="M965 12736 c-417 -108 -744 -391 -924 -798 l-36 -83 -3 -5465 -2
-5465 21 -60 c83 -232 256 -463 464 -620 135 -102 351 -204 495 -234 41 -9
1381 -11 5390 -9 l5335 3 84 28 c451 152 788 505 906 948 l25 95 -2 5325 -3
5324 -37 106 c-158 458 -501 781 -959 904 l-94 25 -5285 -1 -5285 0 -90 -23z
m5895 -1825 c1287 -159 2395 -763 3167 -1726 585 -730 919 -1595 984 -2555 14
-209 6 -601 -16 -810 -64 -606 -227 -1164 -491 -1693 -98 -195 -147 -280 -272
-472 -550 -841 -1372 -1490 -2290 -1809 -115 -40 -170 -44 -249 -21 -61 18
-123 81 -141 143 -9 29 -12 276 -12 927 0 993 -1 1008 -68 1210 -45 132 -107
245 -180 326 -30 33 -53 61 -51 63 2 1 90 12 194 25 705 83 1104 222 1410 489
233 203 396 499 479 872 42 190 57 331 63 595 4 204 2 271 -11 364 -41 279
-152 498 -386 769 l-82 94 21 67 c103 332 93 721 -30 1098 -22 66 -46 123 -54
126 -42 17 -137 18 -225 3 -241 -42 -586 -199 -956 -436 l-123 -79 -68 19
c-281 77 -639 126 -1003 136 -403 12 -854 -38 -1227 -135 l-71 -18 -90 57
c-342 220 -676 382 -907 441 -108 27 -281 33 -308 10 -22 -18 -91 -235 -116
-364 -33 -168 -44 -346 -31 -499 11 -141 36 -278 67 -368 l19 -55 -78 -94
c-192 -232 -288 -421 -333 -654 -61 -319 -31 -845 69 -1207 73 -264 176 -464
328 -635 303 -341 735 -512 1518 -601 85 -10 156 -19 158 -20 2 -1 -23 -34
-56 -74 -100 -118 -174 -282 -211 -465 l-18 -90 -69 -28 c-166 -68 -362 -103
-523 -94 -132 8 -211 27 -326 81 -185 87 -303 199 -446 428 -53 84 -109 158
-158 208 -177 181 -449 301 -651 287 -145 -10 -181 -54 -121 -149 32 -50 116
-123 205 -178 175 -107 354 -366 501 -723 72 -176 207 -317 390 -410 118 -59
306 -108 485 -127 179 -18 471 -7 663 26 l37 7 2 -334 c6 -839 5 -880 -19
-926 -43 -80 -122 -123 -227 -123 -83 0 -344 100 -641 245 -814 399 -1497
1034 -1967 1830 -93 158 -148 262 -218 415 -509 1108 -586 2373 -213 3525 135
419 352 856 595 1199 272 385 650 770 1018 1037 661 481 1459 780 2285 859 61
5 126 12 145 14 19 2 199 3 400 1 293 -3 397 -7 530 -24z m-3094 -6755 c75
-75 17 -173 -60 -101 -24 22 -46 63 -46 86 0 15 39 49 56 49 9 0 31 -15 50
-34z m252 -281 c40 -43 43 -87 8 -111 -23 -14 -28 -14 -61 1 -69 33 -97 108
-52 140 30 22 65 12 105 -30z m333 -188 c60 -40 45 -107 -25 -107 -77 0 -139
48 -116 90 24 45 88 53 141 17z m770 -18 c28 -28 21 -59 -20 -86 -45 -31 -95
-30 -126 2 -32 31 -31 40 4 76 37 37 109 41 142 8z m-373 -39 c62 -38 31 -99
-56 -108 -41 -3 -53 0 -77 20 -73 64 44 142 133 88z"/>
</g>
</svg>
