<svg version="1.0" xmlns="http://www.w3.org/2000/svg"
 width="860.000000pt" height="837.000000pt" viewBox="0 0 860.000000 837.000000"
 preserveAspectRatio="xMidYMid meet">

<g transform="translate(0.000000,837.000000) scale(0.100000,-0.100000)"
fill="#000000" stroke="none">
<path d="M4390 7953 c-40 -21 -34 -6 -556 -1393 -280 -741 -562 -1484 -599
-1577 -16 -40 -18 -41 -46 -31 -17 6 -57 8 -90 6 -70 -5 -97 -18 -544 -268
-165 -92 -462 -256 -660 -365 -198 -109 -448 -247 -555 -308 -392 -221 -699
-391 -848 -470 -187 -98 -196 -109 -190 -210 3 -42 14 -92 26 -119 26 -60 98
-137 182 -196 36 -26 169 -125 295 -221 127 -97 402 -304 611 -462 210 -158
489 -370 620 -471 132 -101 466 -355 744 -563 278 -208 594 -448 703 -533 218
-169 283 -205 377 -206 76 -1 102 15 298 180 92 78 454 381 805 674 352 292
768 642 925 777 158 135 378 322 489 415 194 161 204 172 235 237 l33 68 42
-5 c74 -8 82 6 292 485 76 175 168 388 204 473 104 246 355 830 610 1415 129
297 294 680 368 850 l133 310 4 90 c4 86 2 92 -21 115 -15 15 -61 37 -113 53
-49 16 -143 48 -209 73 -207 75 -1116 391 -1450 504 -176 59 -453 156 -615
215 -162 59 -462 163 -667 231 -204 68 -438 149 -520 180 -171 65 -253 77
-313 47z m267 -49 c223 -81 487 -172 1383 -479 480 -165 1221 -427 1217 -432
-2 -2 -357 119 -788 268 -431 149 -847 293 -924 319 -752 258 -1005 346 -1014
355 -13 14 40 1 126 -31z m-95 2 c35 -13 101 -38 148 -56 47 -18 285 -100 530
-182 245 -83 549 -188 675 -233 127 -46 410 -144 630 -219 220 -75 522 -180
670 -232 149 -53 425 -150 615 -216 190 -66 362 -130 382 -144 70 -45 65 -95
-29 -305 -39 -85 -143 -323 -231 -529 -88 -206 -223 -517 -300 -690 -77 -173
-282 -646 -455 -1050 -367 -853 -426 -990 -455 -1047 -23 -44 -54 -68 -77 -59
-23 8 -29 71 -12 121 24 68 7 92 -58 79 -27 -5 -55 8 -191 83 -87 49 -245 136
-350 193 l-192 104 15 23 c26 40 5 64 -98 118 -52 26 -292 153 -534 283 -1102
589 -1344 716 -1349 711 -2 -2 -11 -19 -20 -36 -28 -55 -96 -58 -96 -4 0 32 8
26 -350 214 -86 45 -95 52 -92 75 5 39 -22 55 -59 36 -27 -14 -29 -13 -29 6 0
12 39 121 86 243 92 237 215 562 282 742 160 431 404 1084 535 1425 85 223
162 428 171 457 36 109 111 137 238 89z m2803 -947 c22 -10 29 -16 16 -13 -37
10 -88 33 -71 33 8 0 33 -9 55 -20z m130 -45 c24 -11 25 -13 5 -8 -14 4 -38
13 -55 20 -24 11 -25 13 -5 8 14 -4 39 -13 55 -20z m391 -133 c359 -123 343
-117 377 -149 23 -22 27 -33 26 -76 l-2 -51 -6 40 c-15 88 -19 90 -404 226
-252 90 -303 109 -285 109 3 0 135 -45 294 -99z m365 -378 c-12 -20 -14 -14
-5 12 4 9 9 14 11 11 3 -2 0 -13 -6 -23z m-260 -609 c-492 -1145 -1020 -2365
-1081 -2499 -17 -38 -50 -115 -71 -171 -24 -62 -53 -116 -74 -140 l-35 -39 39
75 c22 41 67 143 102 225 34 83 188 440 341 795 154 355 315 726 358 825 440
1020 660 1519 667 1512 2 -2 -109 -264 -246 -583z m-4761 -881 c80 -35 509
-263 515 -273 3 -5 -10 -20 -29 -32 -20 -13 -36 -28 -36 -35 0 -16 816 -466
1575 -868 237 -125 440 -233 452 -241 21 -13 26 -12 66 25 l43 40 62 -35 c35
-19 201 -109 370 -200 169 -91 322 -179 340 -197 23 -23 32 -40 32 -64 0 -39
-6 -46 -145 -158 -55 -44 -234 -193 -400 -331 -165 -137 -428 -355 -585 -484
-157 -128 -293 -240 -303 -248 -15 -14 -19 -13 -40 5 -12 11 -103 72 -202 135
-256 164 -666 429 -1059 687 -186 122 -400 261 -475 308 -566 358 -1588 1019
-1597 1035 -16 25 181 -99 721 -457 110 -73 256 -168 325 -210 184 -115 614
-392 1140 -735 641 -418 1099 -713 1148 -739 19 -10 41 5 219 150 320 260
1092 903 1093 910 0 10 -622 359 -1322 744 -109 60 -196 110 -195 112 4 4 660
-352 1052 -572 320 -178 501 -273 490 -255 -3 6 -34 24 -68 42 -63 31 -242
130 -580 322 -103 58 -256 142 -340 187 -84 45 -296 162 -472 259 -300 166
-752 414 -1683 920 -216 118 -391 218 -389 224 5 15 75 49 116 56 51 9 98 2
161 -27z m90 1 c0 -9 -7 -14 -17 -12 -25 5 -28 28 -4 28 12 0 21 -6 21 -16z
m-311 -114 c146 -75 142 -70 85 -108 l-49 -31 -105 55 c-141 75 -141 74 -83
107 26 15 50 27 51 27 2 0 47 -22 101 -50z m-149 -61 c74 -40 108 -65 99 -72
-24 -22 -167 -107 -179 -107 -8 0 -31 10 -50 23 -19 13 -59 36 -87 52 -29 15
-53 31 -53 35 0 5 176 106 190 109 3 0 39 -18 80 -40z m404 -81 l89 -51 -39
-34 c-21 -18 -44 -33 -49 -33 -6 0 -48 22 -95 50 -47 27 -89 52 -95 54 -5 3
-3 9 6 15 9 6 27 19 40 30 13 11 31 20 39 21 8 0 55 -23 104 -52z m-467 -134
c30 -19 51 -38 48 -43 -3 -5 -46 -32 -96 -60 -77 -43 -94 -49 -113 -40 -51 27
-277 162 -274 164 2 2 46 28 98 58 l95 55 94 -50 c52 -27 119 -65 148 -84z
m281 96 c82 -43 118 -67 111 -74 -2 -2 -48 -27 -101 -56 l-98 -52 -85 46 c-46
26 -87 51 -90 56 -5 8 35 38 135 98 19 12 39 22 43 22 5 0 43 -18 85 -40z
m1462 -317 c819 -434 1303 -694 1318 -708 23 -20 3 -45 -36 -45 -28 0 -169 71
-631 318 -328 176 -759 406 -958 512 l-361 193 15 33 c16 33 16 33 47 17 17
-9 290 -153 606 -320z m-782 291 c-4 -20 -34 -41 -44 -31 -8 8 24 47 38 47 5
0 8 -7 6 -16z m-295 -44 c120 -65 118 -62 64 -99 -53 -36 -39 -39 -176 37
l-64 36 39 33 c21 18 45 33 52 33 7 0 45 -18 85 -40z m673 -138 c159 -86 595
-319 967 -517 372 -198 677 -363 677 -367 0 -5 -10 -8 -22 -8 -12 0 -29 -7
-39 -16 -17 -15 -32 -9 -221 91 -112 59 -453 244 -758 410 -305 166 -643 349
-750 405 -107 57 -206 112 -218 124 l-24 21 44 6 c23 3 45 7 48 7 3 1 136 -69
296 -156z m-831 81 c46 -27 85 -51 85 -55 0 -10 -162 -118 -177 -118 -14 0
-151 76 -176 98 -16 15 -12 18 64 58 45 23 86 47 92 53 16 16 20 15 112 -36z
m-796 -60 c91 -53 168 -97 170 -99 4 -3 -83 -59 -155 -99 l-51 -28 -161 97
c-89 53 -164 101 -167 105 -2 5 1 13 8 19 12 11 179 102 186 102 2 0 78 -43
170 -97z m477 -14 c109 -59 111 -48 -28 -123 l-87 -47 -33 17 c-18 9 -59 32
-91 51 -53 32 -57 37 -44 51 21 21 159 101 175 102 7 0 56 -23 108 -51z m717
0 l89 -52 -38 -33 c-22 -18 -46 -33 -54 -34 -19 0 -190 99 -190 110 0 14 64
60 84 60 10 0 59 -23 109 -51z m-172 -51 c103 -61 105 -50 -29 -133 l-74 -46
-94 53 c-52 29 -94 55 -94 58 1 14 158 120 179 120 13 0 64 -24 112 -52z
m-1229 -79 c100 -62 198 -121 216 -132 18 -11 30 -23 25 -27 -4 -4 -51 -36
-103 -70 l-94 -63 -36 20 c-65 37 -335 205 -377 236 l-42 30 102 58 c56 32
107 59 114 59 6 0 94 -50 195 -111z m905 5 c52 -30 91 -59 88 -64 -3 -4 -46
-34 -95 -65 l-90 -57 -103 57 c-56 31 -106 60 -110 64 -7 7 188 121 208 121 5
0 51 -25 102 -56z m709 5 c51 -27 96 -54 99 -59 3 -5 -15 -23 -40 -40 l-46
-31 -97 52 c-53 28 -99 54 -102 56 -6 6 70 73 83 73 5 0 52 -23 103 -51z
m-1125 -30 c46 -27 88 -54 92 -58 8 -8 -80 -69 -159 -109 l-40 -20 -82 47
c-45 26 -87 52 -93 58 -8 8 18 28 88 71 54 33 101 61 104 61 3 1 44 -22 90
-50z m907 2 c31 -16 81 -43 110 -59 l53 -29 -101 -61 -101 -62 -42 21 c-23 12
-70 40 -105 61 l-62 40 52 32 c29 17 71 44 93 59 22 15 41 27 43 27 1 0 28
-13 60 -29z m-1706 -78 c27 -16 48 -31 48 -34 0 -13 -208 -129 -231 -129 -24
0 -46 12 -132 74 l-48 35 43 24 c24 14 77 43 118 65 l75 41 40 -24 c22 -14 61
-37 87 -52z m1424 -19 c46 -25 86 -49 89 -54 5 -8 -46 -43 -146 -99 l-56 -31
-84 51 c-46 28 -85 52 -87 54 -4 3 181 123 191 124 5 1 47 -20 93 -45z m739
-8 c55 -30 100 -59 100 -66 0 -7 -17 -26 -37 -43 l-37 -29 -98 52 c-148 79
-142 72 -91 109 24 16 48 30 53 30 6 1 55 -23 110 -53z m15 18 c0 -2 -9 0 -20
6 -11 6 -20 13 -20 16 0 2 9 0 20 -6 11 -6 20 -13 20 -16z m-1144 -51 c57 -32
104 -61 104 -64 0 -3 -49 -32 -110 -63 l-109 -57 -33 17 c-17 9 -63 36 -101
60 l-70 43 38 23 c21 13 66 39 99 60 34 20 65 37 70 37 5 1 55 -25 112 -56z
m960 -20 c57 -32 103 -62 101 -68 -5 -13 -168 -115 -186 -115 -23 0 -222 113
-214 121 14 13 178 117 187 118 5 1 55 -25 112 -56z m274 21 c0 -2 -13 2 -30
11 -16 9 -30 18 -30 21 0 2 14 -2 30 -11 17 -9 30 -18 30 -21z m-2018 -119
c-9 -7 -63 -38 -119 -69 -117 -66 -103 -67 -229 20 l-64 43 37 24 c21 14 61
36 88 50 28 14 63 35 79 45 l28 20 99 -61 c87 -53 97 -62 81 -72z m-259 -169
c232 -150 778 -503 1212 -783 435 -280 959 -620 1165 -754 206 -134 461 -301
567 -369 106 -69 192 -128 193 -132 0 -4 -100 -88 -222 -187 -123 -98 -394
-321 -603 -495 -376 -313 -380 -316 -425 -316 -62 0 -90 16 -280 161 -91 69
-356 267 -590 440 -960 711 -1014 752 -991 761 12 4 21 14 21 22 0 26 -153
146 -187 146 -7 0 -13 -9 -13 -20 0 -11 -2 -20 -5 -20 -13 0 -586 420 -990
725 -132 100 -280 210 -330 245 -120 85 -145 109 -145 139 0 41 57 81 302 214
128 69 382 209 563 311 182 101 331 185 333 185 2 1 193 -122 425 -273z m-307
238 c32 -19 70 -47 84 -62 15 -15 17 -20 5 -11 -11 9 -42 28 -70 44 -58 33
-102 65 -88 65 5 0 36 -16 69 -36z m1012 -27 l85 -50 -24 -18 c-13 -10 -62
-42 -108 -70 -95 -59 -86 -59 -203 17 -41 26 -66 49 -62 55 4 6 48 38 98 70
63 40 97 57 110 53 11 -4 58 -29 104 -57z m1662 27 c0 -2 -13 2 -30 11 -16 9
-30 18 -30 21 0 2 14 -2 30 -11 17 -9 30 -18 30 -21z m-708 -40 c54 -31 98
-59 98 -63 0 -3 -41 -34 -91 -69 l-91 -64 -71 38 c-40 20 -91 50 -115 66 l-43
30 98 58 c54 33 102 59 107 60 5 0 54 -25 108 -56z m838 -60 c12 -12 10 -19
-20 -49 -19 -19 -41 -35 -49 -35 -12 0 -71 32 -178 97 -13 7 -23 17 -23 21 0
4 19 22 41 40 l42 31 86 -46 c47 -25 93 -52 101 -59z m-1212 7 c39 -24 72 -47
72 -53 0 -15 -184 -129 -199 -123 -32 13 -212 117 -208 121 2 3 53 31 113 63
94 50 112 57 129 46 11 -6 53 -31 93 -54z m1172 43 c0 -2 -9 0 -20 6 -11 6
-20 13 -20 16 0 2 9 0 20 -6 11 -6 20 -13 20 -16z m-227 -49 c134 -72 131 -66
62 -110 -33 -21 -73 -49 -88 -62 -38 -31 -63 -29 -117 8 -25 16 -67 41 -93 55
-27 14 -47 30 -45 35 4 13 169 117 186 118 8 1 51 -19 95 -44z m-1842 -28 c46
-29 84 -57 84 -62 -1 -13 -196 -144 -216 -144 -22 -1 -202 120 -192 129 4 4
51 31 103 60 52 29 99 56 105 61 16 16 30 10 116 -44z m2159 27 c0 -2 -9 0
-20 6 -11 6 -20 13 -20 16 0 2 9 0 20 -6 11 -6 20 -13 20 -16z m-1638 -50 c54
-31 95 -60 92 -65 -3 -5 -35 -26 -72 -48 -37 -22 -82 -51 -100 -65 -38 -27
-48 -26 -107 15 -22 15 -60 39 -84 54 -24 15 -39 30 -35 35 10 10 197 129 203
130 3 0 49 -25 103 -56z m973 -12 c75 -45 104 -65 105 -73 0 -4 -41 -37 -90
-74 l-90 -67 -103 58 c-56 33 -101 64 -100 69 0 6 40 38 88 73 99 70 96 70
190 14z m708 12 c55 -28 207 -114 207 -118 0 -1 -20 -18 -44 -39 l-44 -37
-126 71 c-69 39 -126 75 -126 79 0 7 70 70 78 70 1 0 26 -12 55 -26z m47 0 c0
-2 -9 0 -20 6 -11 6 -20 13 -20 16 0 2 9 0 20 -6 11 -6 20 -13 20 -16z m-1159
-57 c42 -23 86 -50 99 -59 24 -17 24 -18 5 -33 -25 -19 -185 -115 -192 -115
-10 0 -204 122 -201 126 18 18 187 123 198 123 8 1 49 -18 91 -42z m1012 -36
l109 -58 -44 -35 c-23 -20 -67 -50 -96 -68 l-54 -33 -36 17 c-21 10 -73 38
-116 64 -90 52 -94 39 34 122 41 27 80 49 85 49 6 0 59 -26 118 -58z m-1901
-10 c47 -27 107 -63 133 -79 l46 -29 -33 -25 c-54 -40 -208 -130 -217 -126
-17 6 -240 153 -240 158 -1 5 210 148 219 149 3 1 45 -21 92 -48z m530 -20
c46 -27 94 -58 107 -68 l24 -19 -69 -46 c-38 -24 -87 -55 -110 -68 l-41 -24
-77 44 c-42 24 -90 55 -107 70 l-32 26 104 67 c57 36 107 67 111 67 4 0 45
-22 90 -49z m1718 13 c0 -2 -9 0 -20 6 -11 6 -20 13 -20 16 0 2 9 0 20 -6 11
-6 20 -13 20 -16z m-710 -45 c58 -33 109 -64 114 -69 5 -5 -12 -23 -39 -42
-26 -18 -66 -48 -87 -65 -50 -41 -74 -41 -134 0 -27 18 -71 45 -97 61 -42 24
-46 30 -35 44 17 20 157 132 166 132 4 0 54 -27 112 -61z m806 -35 c57 -30
104 -59 104 -64 0 -12 -72 -70 -86 -70 -11 0 -142 70 -202 107 l-24 15 39 33
c21 19 44 34 52 35 8 0 60 -25 117 -56z m14 20 c0 -2 -13 2 -30 11 -16 9 -30
18 -30 21 0 2 14 -2 30 -11 17 -9 30 -18 30 -21z m-1213 -37 l93 -54 -28 -25
c-15 -13 -58 -46 -97 -73 l-70 -48 -50 28 c-81 46 -155 94 -155 102 0 12 182
123 200 123 8 0 57 -24 107 -53z m1012 -31 l114 -64 -69 -50 c-38 -28 -83 -59
-100 -68 l-31 -17 -116 64 c-64 35 -116 66 -117 69 0 8 183 130 194 130 6 0
62 -29 125 -64z m-1356 -49 l108 -64 -113 -70 c-129 -81 -108 -81 -238 2 -38
25 -74 45 -80 45 -6 0 -10 4 -8 10 4 12 199 139 213 140 6 0 59 -29 118 -63z
m-420 -48 c303 -182 1022 -629 1025 -638 4 -13 -250 -181 -263 -174 -17 10
-1170 755 -1174 759 -10 9 31 41 123 95 55 32 105 59 110 59 6 0 86 -45 179
-101z m1417 31 c57 -33 109 -61 115 -64 5 -2 8 -5 5 -8 -11 -11 -202 -138
-207 -138 -3 0 -46 24 -97 54 -50 30 -99 58 -109 62 -10 3 -16 11 -15 15 4 12
180 137 193 138 6 0 57 -26 115 -59z m813 -30 c56 -33 108 -63 116 -68 10 -6
2 -17 -32 -45 l-46 -38 -128 67 c-70 37 -130 69 -133 71 -11 10 71 73 95 73
14 0 72 -27 128 -60z m-1227 -12 c57 -34 104 -66 104 -70 0 -10 -52 -48 -131
-96 l-66 -40 -79 44 c-44 24 -94 52 -111 61 -38 19 -39 24 -15 45 37 34 166
118 180 118 8 0 61 -28 118 -62z m1025 -30 c65 -35 117 -67 116 -73 -4 -12
-178 -134 -192 -135 -14 0 -227 124 -229 133 -1 6 170 133 183 136 2 1 57 -27
122 -61z m-1369 -55 l110 -67 -24 -18 c-42 -33 -200 -129 -207 -126 -51 23
-218 135 -212 141 10 10 213 136 220 137 2 0 53 -30 113 -67z m1051 -41 c42
-24 77 -48 77 -52 0 -4 -42 -39 -94 -78 l-93 -70 -122 70 c-140 81 -139 67
-11 156 l85 59 40 -20 c22 -10 75 -40 118 -65z m792 -13 c61 -33 113 -64 118
-68 9 -9 -78 -71 -101 -71 -9 0 -65 28 -124 63 l-107 63 37 37 c20 20 43 37
52 37 8 0 65 -28 125 -61z m-1322 35 c56 -29 197 -117 197 -123 0 -3 -45 -37
-100 -74 l-100 -68 -32 17 c-18 9 -73 42 -121 72 -86 53 -88 55 -71 73 18 20
173 118 187 119 4 0 22 -7 40 -16z m1118 -75 c60 -34 109 -65 109 -69 0 -5
-41 -38 -91 -75 -106 -77 -83 -78 -242 12 -60 33 -95 59 -90 64 24 24 180 128
192 128 8 1 63 -27 122 -60z m-4914 -11 c-3 -7 -5 -2 -5 12 0 14 2 19 5 13 2
-7 2 -19 0 -25z m3520 -39 c57 -34 103 -64 103 -68 0 -13 -43 -49 -125 -105
-91 -62 -70 -65 -217 27 -54 33 -95 63 -92 68 2 4 39 29 82 55 42 27 88 56
101 66 13 10 28 18 34 18 6 0 57 -27 114 -61z m945 22 c179 -100 199 -113 187
-128 -7 -8 -50 -41 -97 -75 l-84 -61 -53 26 c-60 29 -161 93 -169 106 -5 7
164 147 181 151 1 0 17 -8 35 -19z m-4462 -35 c0 -7 9 -16 20 -19 18 -5 20
-14 20 -76 0 -72 -14 -95 -26 -43 -4 15 -10 32 -14 37 -14 18 -23 115 -11 115
6 0 11 -6 11 -14z m5398 -53 l126 -66 -45 -39 c-24 -21 -48 -38 -54 -38 -9 0
-86 41 -212 111 -24 13 -43 29 -43 34 1 13 70 63 89 64 8 1 70 -29 139 -66z
m-1267 -5 c60 -35 107 -67 105 -73 -4 -13 -178 -145 -192 -145 -20 0 -233 133
-228 142 3 5 43 33 89 63 45 29 86 58 89 64 12 18 25 13 137 -51z m1024 -16
c55 -29 111 -61 124 -71 l24 -18 -96 -73 -96 -72 -103 56 c-57 31 -114 66
-128 77 l-25 20 23 16 c13 9 56 40 95 70 40 29 74 52 77 51 3 -2 50 -27 105
-56z m-4917 -106 c74 -56 173 -130 220 -164 68 -50 87 -69 87 -88 -1 -30 15
-32 16 -1 0 15 2 17 6 7 4 -8 12 -20 20 -25 10 -8 13 -31 11 -87 l-3 -77 -145
106 c-156 114 -315 238 -367 286 -32 30 -33 34 -33 105 l0 74 28 -17 c15 -10
87 -63 160 -119z m3537 37 c63 -38 115 -71 115 -75 0 -4 -50 -41 -111 -82
l-110 -75 -112 70 c-62 38 -113 73 -114 77 -2 4 38 36 87 71 50 34 93 67 96
72 11 18 38 8 149 -58z m978 16 c86 -44 188 -110 185 -119 -5 -15 -182 -140
-197 -140 -21 0 -251 133 -248 143 3 10 179 146 190 146 4 1 36 -13 70 -30z
m889 -61 c54 -29 111 -63 126 -75 l27 -22 -40 -35 c-22 -20 -44 -35 -48 -36
-14 0 -169 86 -216 121 l-42 30 43 34 c24 19 45 35 47 35 2 0 48 -24 103 -52z
m-1308 9 c34 -19 87 -51 119 -71 l57 -37 -43 -37 c-72 -62 -146 -114 -159
-110 -28 7 -237 134 -235 142 4 11 179 145 191 145 5 1 37 -14 70 -32z m1189
-100 c37 -21 67 -41 67 -42 0 -2 -41 -38 -91 -79 l-91 -77 -82 44 c-44 25
-107 60 -139 80 l-59 35 99 75 98 75 65 -35 c36 -20 95 -54 133 -76z m771 57
c9 -3 16 -15 16 -25 0 -23 -8 -24 -32 -2 -30 27 -21 41 16 27z m-2256 -78 c61
-37 112 -71 112 -75 0 -8 -53 -50 -157 -125 l-53 -38 -57 33 c-95 53 -183 113
-180 123 3 10 209 153 217 151 3 -1 56 -32 118 -69z m1063 -26 c67 -38 124
-71 126 -73 3 -4 -182 -148 -200 -155 -10 -5 -257 139 -257 149 0 9 190 149
201 149 5 0 63 -31 130 -70z m849 -35 c161 -90 151 -79 110 -115 -61 -54 -56
-55 -199 27 l-132 76 37 38 c21 22 45 39 54 39 8 0 67 -29 130 -65z m-1276
-17 c69 -39 123 -75 120 -79 -3 -5 -50 -41 -105 -80 l-100 -70 -67 37 c-59 33
-169 100 -181 111 -9 7 177 153 195 153 7 0 68 -32 138 -72z m1090 -37 c207
-116 206 -115 205 -126 -1 -11 -150 -142 -171 -150 -7 -3 -65 24 -128 61 -63
36 -143 82 -178 101 -54 30 -61 37 -50 51 22 27 161 142 171 142 5 0 73 -36
151 -79z m521 12 c-18 -101 -76 -175 -235 -301 -116 -92 -273 -223 -534 -447
-491 -418 -1130 -944 -1137 -934 -3 6 -9 0 -13 -15 -4 -16 -36 -50 -85 -88
-43 -35 -174 -144 -292 -242 -297 -249 -304 -254 -319 -258 -8 -2 -19 -12 -25
-23 -6 -11 -18 -21 -28 -23 -15 -3 -17 6 -17 75 0 54 3 73 10 63 8 -12 10 -10
11 10 1 14 5 6 9 -20 l7 -45 3 45 c2 42 3 43 10 15 7 -29 8 -28 9 11 l1 42
278 229 c152 126 307 253 345 282 l67 53 1 -59 1 -58 10 50 c18 99 21 105 28
60 7 -40 7 -40 9 13 0 28 5 52 10 52 5 0 24 15 43 33 18 17 63 55 98 83 176
137 1664 1370 1699 1408 34 36 44 33 36 -11z m-2444 -100 c47 -29 96 -60 108
-70 l22 -18 -108 -82 c-59 -44 -117 -86 -129 -93 -19 -12 -36 -3 -172 85 -171
111 -169 106 -73 162 25 15 75 48 110 74 l65 47 45 -26 c26 -14 85 -50 132
-79z m465 41 c60 -36 113 -69 117 -73 5 -5 -33 -39 -83 -77 -145 -109 -127
-103 -196 -57 -32 22 -87 57 -122 77 -40 24 -60 42 -54 48 30 30 200 148 213
148 9 0 65 -30 125 -66z m1079 -25 l126 -72 -28 -29 c-34 -36 -158 -138 -167
-138 -5 0 -163 88 -264 147 -10 6 17 31 89 86 56 42 105 77 109 77 4 0 65 -32
135 -71z m-4753 -36 c1 -50 2 -52 5 -15 7 73 23 46 23 -38 0 -44 -3 -80 -7
-80 -5 0 -16 7 -25 14 -15 11 -18 29 -18 95 0 92 19 113 22 24z m49 40 c13
-16 12 -17 -3 -4 -10 7 -18 15 -18 17 0 8 8 3 21 -13z m4219 -26 c119 -69 170
-101 170 -109 0 -4 -41 -41 -91 -84 l-91 -77 -36 17 c-21 10 -83 45 -140 78
-75 44 -100 64 -92 72 13 14 193 144 200 145 3 1 39 -18 80 -42z m-3595 -437
c1240 -927 1378 -1030 1570 -1170 109 -80 271 -201 359 -269 201 -156 226
-171 292 -171 56 0 68 7 166 96 31 29 137 116 235 195 98 78 332 271 521 428
303 252 391 320 368 282 -4 -5 -104 -90 -224 -188 -119 -97 -379 -313 -578
-478 -446 -372 -425 -356 -477 -362 -66 -8 -66 -8 -457 291 -244 186 -386 292
-570 424 -91 66 -322 240 -515 387 -192 147 -557 423 -810 613 -253 189 -467
351 -475 360 -13 14 -13 15 0 6 8 -6 276 -206 595 -444z m-148 77 c252 -189
568 -428 703 -532 135 -104 277 -214 317 -244 40 -31 87 -65 105 -76 21 -13
35 -31 39 -50 5 -24 7 -26 8 -7 1 32 21 17 22 -16 0 -24 1 -25 9 -7 14 34 21
-3 18 -88 l-3 -77 -475 358 c-934 704 -1154 876 -1161 908 -6 28 -7 28 -9 4
-2 -19 -5 -15 -10 15 l-7 40 -2 -34 c-1 -32 -2 -33 -18 -18 -15 13 -17 29 -15
91 2 42 7 76 12 76 4 0 214 -154 467 -343z m3425 241 l121 -72 -34 -29 c-19
-16 -69 -56 -113 -88 -78 -60 -79 -60 -105 -42 -27 18 -186 117 -211 131 -11
7 12 28 95 90 61 45 114 82 118 82 5 0 63 -32 129 -72z m1025 11 c41 -22 94
-53 119 -69 l45 -28 -97 -82 c-65 -55 -102 -79 -113 -75 -9 3 -63 34 -120 68
l-105 61 54 46 c30 25 72 62 94 82 23 21 43 38 45 38 2 0 38 -18 78 -41z
m-1487 -57 c63 -39 116 -75 118 -80 1 -5 -52 -53 -119 -106 l-121 -97 -57 32
c-110 62 -203 131 -193 141 23 23 247 186 252 183 3 -2 57 -35 120 -73z m1046
7 c32 -17 132 -74 221 -127 l162 -96 -22 -24 c-12 -14 -57 -53 -100 -88 l-77
-63 -220 132 c-121 73 -220 135 -220 139 0 12 171 158 185 158 7 0 39 -14 71
-31z m-315 -121 c250 -146 478 -283 479 -288 0 -6 -184 -160 -208 -174 -14 -8
-99 40 -427 243 -99 62 -180 116 -180 121 0 9 194 169 206 170 3 0 61 -33 130
-72z m-434 -71 c126 -78 124 -73 42 -133 l-49 -35 -122 75 c-67 42 -126 76
-131 76 -18 0 0 21 53 64 64 51 44 55 207 -47z m-170 -88 c65 -40 124 -77 132
-84 11 -11 3 -21 -45 -59 -33 -25 -65 -44 -73 -41 -11 4 -225 140 -241 153 -4
3 99 102 107 102 2 0 56 -32 120 -71z m447 -82 l119 -71 -44 -39 c-71 -63 -63
-64 -203 19 -70 41 -126 80 -124 85 6 19 103 87 118 83 8 -3 68 -37 134 -77z
m-3119 -37 c28 -21 61 -48 75 -59 14 -10 23 -22 20 -24 -10 -10 -65 23 -120
73 -66 59 -46 67 25 10z m2915 -31 c104 -59 180 -108 180 -118 0 -4 -27 -29
-61 -56 l-60 -47 -77 46 c-106 65 -174 115 -170 127 4 11 99 88 110 88 3 1 38
-17 78 -40z m431 -70 c46 -29 103 -63 127 -77 l43 -24 -28 -30 c-15 -16 -41
-39 -56 -50 l-28 -20 -129 78 c-72 42 -130 80 -129 83 0 7 101 90 110 90 3 1
44 -22 90 -50z m-125 -112 c49 -29 106 -64 126 -78 l38 -26 -33 -30 c-17 -16
-48 -42 -68 -56 l-36 -27 -84 53 c-150 95 -169 107 -169 111 0 7 121 106 129
106 4 0 47 -24 97 -53z m-2384 -589 c1 -57 2 -59 5 -15 6 76 23 44 23 -44 0
-43 -3 -79 -6 -79 -3 0 -14 5 -25 10 -17 9 -19 22 -19 100 0 102 19 126 22 28z
m207 -104 c80 -59 291 -217 469 -351 l322 -244 0 -79 c0 -49 -4 -80 -10 -80
-22 0 -72 33 -172 112 -57 45 -238 183 -403 306 -262 195 -301 228 -306 255
-6 29 -7 30 -9 7 -2 -19 -5 -15 -10 15 l-7 40 -2 -34 c-1 -33 -1 -34 -21 -16
-17 15 -20 31 -20 97 0 51 4 78 11 78 6 0 77 -48 158 -106z m851 -642 c0 -15
2 -15 10 -2 8 12 10 9 10 -13 0 -16 4 -26 9 -23 5 3 7 15 4 26 -4 14 0 20 11
20 13 0 16 -11 16 -57 0 -31 3 -53 8 -49 4 4 7 31 7 59 0 41 4 52 18 55 15 3
17 -6 17 -76 l0 -80 -30 -7 c-16 -4 -40 -3 -52 1 -13 4 -30 7 -39 6 -9 -2 -21
3 -27 11 -12 14 -5 57 9 57 13 0 11 44 -3 58 -8 8 -8 15 2 26 14 18 30 12 30
-12z"/>
<path d="M4400 7885 c-17 -21 -5 -61 21 -68 27 -7 47 1 60 24 20 38 -53 78
-81 44z m60 -25 c0 -24 -26 -38 -42 -22 -16 16 -2 42 22 42 13 0 20 -7 20 -20z"/>
<path d="M4456 7691 c-9 -17 -68 -165 -130 -329 -63 -163 -158 -409 -211 -547
-250 -644 -372 -965 -484 -1270 -67 -181 -134 -357 -148 -390 -15 -33 -32 -79
-39 -102 -11 -38 -11 -44 7 -67 11 -14 88 -60 172 -102 84 -42 278 -144 432
-227 154 -82 438 -233 630 -335 193 -102 622 -331 955 -509 1048 -563 971
-524 1000 -498 21 19 -34 -108 638 1465 319 745 608 1418 642 1495 36 82 62
155 63 178 2 36 -1 41 -33 58 -19 10 -116 46 -215 80 -99 33 -476 166 -838
295 -362 129 -846 299 -1075 378 -536 185 -743 258 -1031 362 -128 47 -253 87
-276 91 -41 5 -44 4 -59 -26z"/>
<path d="M6050 7341 c0 -15 21 -26 97 -55 94 -34 123 -35 111 -4 -5 13 -124
60 -180 72 -23 5 -28 3 -28 -13z m140 -43 c43 -23 5 -14 -55 13 -34 16 -35 17
-10 12 17 -3 46 -14 65 -25z"/>
<path d="M8151 6581 c-17 -17 -19 -26 -11 -41 22 -40 85 -37 96 6 8 29 -1 40
-38 49 -19 5 -32 1 -47 -14z m63 -10 c10 -16 -5 -41 -24 -41 -23 0 -34 16 -26
35 6 16 42 20 50 6z"/>
<path d="M3107 4913 c-4 -3 -7 -15 -7 -25 0 -13 7 -18 25 -18 20 0 25 5 25 25
0 18 -5 25 -18 25 -10 0 -22 -3 -25 -7z m33 -17 c0 -3 -4 -8 -10 -11 -5 -3
-10 -1 -10 4 0 6 5 11 10 11 6 0 10 -2 10 -4z"/>
<path d="M3357 4763 c-4 -3 -7 -15 -7 -25 0 -13 7 -18 25 -18 20 0 25 5 25 25
0 18 -5 25 -18 25 -10 0 -22 -3 -25 -7z m33 -17 c0 -3 -4 -8 -10 -11 -5 -3
-10 -1 -10 4 0 6 5 11 10 11 6 0 10 -2 10 -4z"/>
<path d="M6095 3303 c-54 -13 -73 -69 -33 -97 50 -35 148 -10 148 37 0 30 -11
44 -43 56 -29 11 -39 12 -72 4z m70 -39 c30 -30 -20 -57 -69 -38 -21 8 -20 31
2 43 25 15 48 13 67 -5z"/>
<path d="M6498 3069 c-26 -15 -23 -58 4 -68 52 -19 94 23 58 59 -22 22 -36 24
-62 9z m56 -18 c10 -16 -5 -41 -24 -41 -23 0 -34 16 -26 35 6 16 42 20 50 6z"/>
<path d="M1460 3522 c8 -4 -122 -9 -290 -12 -257 -5 -222 -6 215 -6 286 -1
510 1 498 3 -13 2 -23 9 -23 14 0 5 -86 9 -207 8 -115 0 -201 -4 -193 -7z"/>
<path d="M1243 3473 c43 -2 110 -2 150 0 40 1 5 3 -78 3 -82 0 -115 -2 -72 -3z"/>
<path d="M1722 3423 c70 -2 187 -2 260 0 73 1 16 3 -127 3 -143 0 -203 -2
-133 -3z"/>
<path d="M2570 3231 c-43 -9 -65 -21 -159 -84 -40 -27 -184 -115 -320 -195
-368 -217 -408 -245 -421 -293 -18 -65 -34 -51 395 -364 127 -92 247 -183 267
-201 62 -55 84 -66 137 -66 58 1 75 9 219 103 114 74 113 73 140 106 9 11 136
100 282 196 336 222 367 249 323 293 -10 9 -183 127 -385 260 -385 255 -399
262 -478 245z m253 -138 c89 -58 216 -142 282 -186 66 -44 149 -98 185 -119
78 -48 120 -86 120 -108 0 -22 -25 -44 -100 -89 -33 -20 -157 -102 -275 -183
-118 -82 -219 -148 -225 -148 -19 0 -801 547 -815 570 -7 11 14 26 290 192
300 181 292 177 338 178 33 0 64 -17 200 -107z m-383 42 c0 -2 -10 -9 -22 -15
-22 -11 -22 -10 -4 4 21 17 26 19 26 11z m-50 -30 c0 -2 -10 -9 -22 -15 -22
-11 -22 -10 -4 4 21 17 26 19 26 11z m10 -590 c157 -110 306 -216 333 -233 26
-18 47 -36 47 -40 0 -4 -56 -42 -125 -85 -125 -78 -171 -95 -220 -83 -14 4
-99 62 -188 129 -89 68 -236 179 -327 247 -91 67 -180 137 -197 153 -45 42
-44 74 2 93 19 8 35 18 35 23 0 5 39 34 86 65 l86 55 91 -61 c51 -34 220 -152
377 -263z m-619 18 c13 -16 12 -17 -3 -4 -10 7 -18 15 -18 17 0 8 8 3 21 -13z
m722 -486 c-21 -6 -45 -6 -65 0 -29 8 -25 9 32 9 57 0 61 -1 33 -9z"/>
<path d="M1908 2703 c23 -2 59 -2 80 0 20 2 1 4 -43 4 -44 0 -61 -2 -37 -4z"/>
<path d="M1948 2673 c12 -2 30 -2 40 0 9 3 -1 5 -23 4 -22 0 -30 -2 -17 -4z"/>
<path d="M2528 2293 c23 -2 61 -2 85 0 23 2 4 4 -43 4 -47 0 -66 -2 -42 -4z"/>
<path d="M2438 2273 c34 -2 90 -2 125 0 34 2 6 3 -63 3 -69 0 -97 -1 -62 -3z"/>
<path d="M2435 2240 c29 -13 94 -13 75 0 -8 5 -33 9 -55 9 -31 0 -36 -2 -20
-9z"/>
<path d="M4188 2103 c18 -2 45 -2 60 0 15 2 0 4 -33 4 -33 0 -45 -2 -27 -4z"/>
<path d="M3283 2073 c59 -2 155 -2 215 0 59 1 10 3 -108 3 -118 0 -167 -2
-107 -3z"/>
<path d="M3955 2000 c-33 -4 64 -7 215 -7 204 0 246 2 165 7 -135 9 -300 9
-380 0z"/>
<path d="M2914 1909 c-5 -8 119 -9 452 -4 253 4 461 9 463 11 2 2 -201 4 -452
4 -321 0 -458 -3 -463 -11z"/>
<path d="M400 3250 c0 -18 4 -29 10 -25 6 3 10 15 10 25 0 10 -4 22 -10 25 -6
4 -10 -7 -10 -25z"/>
<path d="M6428 2765 c-31 -24 -288 -237 -571 -473 -283 -237 -581 -483 -661
-547 -81 -65 -150 -123 -153 -131 -9 -23 6 -34 33 -24 27 11 38 19 384 306
118 98 391 321 605 496 442 361 475 389 475 406 0 27 -57 11 -112 -33z m81 18
c-6 -10 -30 -32 -53 -49 -34 -26 -632 -516 -1203 -987 -67 -55 -137 -109 -155
-120 l-33 -19 26 24 c76 67 417 351 654 543 149 121 364 298 479 395 232 195
276 230 288 230 4 0 3 -8 -3 -17z"/>
<path d="M4762 1340 c0 -19 2 -27 5 -17 2 9 2 25 0 35 -3 9 -5 1 -5 -18z"/>
<path d="M1600 2295 c-20 -24 -3 -63 41 -90 22 -14 112 -81 200 -148 199 -152
237 -177 266 -177 18 0 23 5 23 28 0 36 -21 65 -67 93 -21 13 -96 69 -168 125
-228 177 -269 201 -295 169z m80 -46 c25 -22 128 -100 229 -172 175 -127 227
-177 181 -177 -10 0 -47 24 -81 53 -34 28 -96 76 -138 105 -42 30 -89 66 -106
82 -16 15 -54 42 -83 60 -49 30 -72 55 -72 79 0 22 27 10 70 -30z"/>
</g>
</svg>
