<svg version="1.0" xmlns="http://www.w3.org/2000/svg"
 width="1513.000000pt" height="355.000000pt" viewBox="0 0 1513.000000 355.000000"
 preserveAspectRatio="xMidYMid meet">

<g transform="translate(0.000000,355.000000) scale(0.100000,-0.100000)"
fill="#0177b5" stroke="none">
<path d="M438 3416 c-53 -14 -106 -52 -141 -99 -55 -74 -52 13 -52 -1542 l0
-1440 23 -47 c27 -54 87 -112 141 -136 33 -16 159 -17 1481 -17 l1445 0 47 23
c64 32 125 102 143 167 13 45 15 235 13 1481 l-3 1429 -22 40 c-12 23 -42 60
-66 82 -84 78 21 73 -1556 72 -1098 0 -1416 -3 -1453 -13z m660 -447 c81 -40
127 -95 153 -182 75 -244 -174 -458 -409 -352 -112 50 -172 144 -172 268 0
123 53 211 159 265 55 27 75 32 136 32 60 0 82 -5 133 -31z m1580 -794 c178
-43 301 -167 347 -350 30 -123 35 -210 35 -707 l0 -508 -244 0 -244 0 -5 468
c-5 483 -9 531 -50 608 -39 76 -119 111 -227 100 -160 -17 -261 -120 -289
-296 -6 -38 -11 -236 -11 -472 l0 -408 -245 0 -245 0 2 783 3 782 210 3 c116
1 220 0 233 -3 21 -5 22 -10 22 -104 l0 -99 63 62 c72 71 155 118 259 146 61
17 94 20 198 15 69 -2 153 -11 188 -20z m-1470 -782 l2 -783 -245 0 -245 0 0
778 c0 428 3 782 7 786 4 3 113 5 242 4 l236 -3 3 -782z"/>
<path fill="#000" d="M14362 2835 c-218 -48 -379 -213 -443 -457 -18 -64 -23 -112 -23
-213 -1 -156 18 -252 75 -374 31 -67 54 -98 116 -160 48 -47 99 -86 133 -103
208 -98 496 -73 648 57 l42 37 0 279 0 279 -220 0 -220 0 0 -70 0 -69 143 -3
142 -3 3 -155 c1 -85 0 -164 -2 -176 -13 -52 -171 -101 -290 -89 -102 10 -167
38 -236 102 -107 98 -160 248 -160 446 1 243 94 422 260 501 60 29 73 31 175
31 124 0 172 -15 252 -81 l43 -35 28 32 c68 82 67 72 18 117 -50 46 -149 95
-224 111 -70 15 -182 13 -260 -4z"/>
<path fill="#000" d="M4410 2160 l0 -670 375 0 375 0 0 70 0 70 -290 0 -290 0 -2 598 -3
597 -82 3 -83 3 0 -671z"/>
<path fill="#000" d="M5697 2823 c-4 -3 -7 -305 -7 -670 l0 -663 395 0 395 0 0 70 0 70
-310 0 -310 0 0 245 0 245 255 0 255 0 0 70 0 70 -252 2 -253 3 0 210 0 210
298 3 297 2 0 70 0 70 -378 0 c-208 0 -382 -3 -385 -7z"/>
<path fill="#000" d="M7329 2803 c-21 -53 -439 -1295 -439 -1304 0 -5 37 -9 83 -9 l82 0
64 205 64 205 245 -2 244 -3 62 -200 62 -200 92 -3 91 -3 -170 503 c-94 277
-196 577 -227 668 l-57 165 -93 3 -92 3 -11 -28z m155 -288 c25 -88 68 -231
95 -317 27 -86 46 -160 43 -163 -9 -8 -392 -6 -392 3 0 4 29 100 64 212 35
113 79 258 97 323 18 64 36 114 39 110 4 -5 28 -80 54 -168z"/>
<path fill="#000" d="M8468 2824 c-5 -4 -8 -306 -8 -671 l0 -663 85 0 85 0 0 280 0 280
124 0 124 0 158 -280 159 -279 94 -1 c78 0 92 2 87 15 -3 8 -77 138 -166 289
-88 151 -160 277 -160 280 0 3 8 6 18 6 33 0 122 49 171 95 30 28 59 69 77
108 25 55 29 73 29 162 0 157 -44 249 -152 312 -96 56 -154 65 -448 70 -148 3
-273 2 -277 -3z m572 -158 c99 -37 146 -118 138 -235 -9 -127 -77 -200 -212
-228 -34 -7 -123 -13 -198 -13 l-138 0 0 251 0 251 183 -4 c140 -4 192 -9 227
-22z"/>
<path fill="#000" d="M9920 2160 l0 -671 78 3 77 3 3 280 c3 262 -13 780 -25 811 -3 8 -1
14 5 14 5 0 38 -55 72 -122 35 -67 159 -287 275 -488 116 -201 228 -395 249
-432 l38 -68 89 0 89 0 -2 668 -3 667 -79 3 -78 3 5 -528 c3 -290 9 -543 13
-562 12 -59 -13 -26 -78 102 -33 67 -173 317 -310 555 l-250 432 -84 0 -84 0
0 -670z"/>
<path fill="#000" d="M11530 2160 l0 -670 85 0 85 0 -2 668 -3 667 -82 3 -83 3 0 -671z"/>
<path fill="#000" d="M12360 2160 l0 -670 81 0 82 0 -7 478 c-3 262 -10 512 -14 555 -4 42
-4 77 0 77 3 0 38 -61 77 -135 39 -74 160 -289 269 -477 109 -189 218 -378
242 -420 l44 -78 88 0 88 0 0 670 0 671 -77 -3 -78 -3 0 -445 c0 -245 3 -496
7 -559 5 -69 4 -111 -1 -105 -5 5 -50 86 -99 179 -49 94 -188 341 -310 550
l-220 380 -86 3 -86 3 0 -671z"/>
<path fill="#000" d="M6560 860 l0 -340 205 0 205 0 0 65 0 65 -135 0 -135 0 0 275 0 275
-70 0 -70 0 0 -340z"/>
<path fill="#000" d="M8430 1078 c0 -114 -1 -120 -17 -106 -34 30 -82 48 -128 48 -127 0
-207 -99 -206 -257 0 -115 41 -197 116 -233 72 -35 154 -24 208 28 l27 26 0
-32 0 -32 65 0 65 0 0 340 0 340 -65 0 -65 0 0 -122z m-57 -177 c50 -19 57
-36 57 -136 0 -93 0 -94 -31 -116 -61 -43 -145 -21 -178 47 -19 38 -18 112 3
152 27 53 90 75 149 53z"/>
<path fill="#000" d="M11494 1011 c-182 -83 -175 -416 11 -487 58 -22 155 -16 192 12 44
33 51 51 27 74 l-21 21 -37 -22 c-100 -59 -200 4 -213 133 -15 150 89 255 198
198 42 -21 42 -21 62 -1 27 26 16 48 -35 71 -54 25 -131 25 -184 1z"/>
<path fill="#000" d="M11960 1003 c-46 -24 -59 -38 -85 -88 -26 -50 -30 -69 -30 -139 0
-105 22 -163 82 -216 50 -44 87 -55 168 -48 127 11 207 134 191 297 -7 84 -40
147 -94 186 -35 24 -55 30 -110 33 -59 3 -74 0 -122 -25z m170 -72 c45 -33 63
-77 64 -155 1 -115 -49 -188 -129 -188 -44 0 -82 25 -110 73 -28 48 -28 169 1
223 37 72 113 92 174 47z"/>
<path fill="#000" d="M4340 1008 c1 -7 22 -119 48 -248 l48 -235 55 -3 55 -3 38 173 c21
95 40 180 43 188 3 8 20 -51 38 -131 19 -81 39 -165 45 -188 l11 -41 54 0 c48
0 55 3 60 23 3 12 25 123 49 247 l43 225 -40 3 c-21 2 -41 2 -43 0 -2 -2 -19
-94 -38 -204 -18 -109 -36 -192 -39 -184 -3 8 -25 99 -49 203 l-43 187 -41 0
-41 0 -41 -182 c-23 -101 -42 -191 -42 -200 0 -10 -4 -18 -8 -18 -5 0 -16 52
-26 116 -9 63 -24 153 -33 200 l-15 84 -44 0 c-29 0 -44 -4 -44 -12z"/>
<path fill="#000" d="M5070 769 l0 -250 43 3 42 3 3 248 2 247 -45 0 -45 0 0 -251z"/>
<path fill="#000" d="M5300 985 l0 -35 75 0 75 0 0 -215 0 -215 45 0 45 0 0 215 0 215 70
0 70 0 0 35 0 35 -190 0 -190 0 0 -35z"/>
<path fill="#000" d="M5830 770 l0 -250 45 0 45 0 0 110 0 110 100 0 99 0 3 -107 3 -108
43 -3 42 -3 0 250 0 251 -45 0 -45 0 0 -100 0 -100 -100 0 -100 0 0 100 0 100
-45 0 -45 0 0 -250z"/>
<path fill="#000" d="M7717 991 c-55 -29 -56 -29 -59 -8 -3 20 -10 22 -65 25 l-63 3 0
-246 0 -246 63 3 62 3 5 169 5 169 28 21 c41 30 112 29 138 -3 17 -21 19 -41
19 -192 l0 -169 66 0 65 0 -3 203 c-3 175 -5 207 -21 230 -48 73 -145 88 -240
38z"/>
<path fill="#000" d="M8795 1011 c-40 -10 -88 -36 -104 -55 -11 -13 -9 -22 9 -51 12 -19
23 -35 25 -35 2 0 19 9 37 19 47 27 90 34 138 21 33 -9 44 -18 56 -45 15 -36
19 -85 7 -85 -3 0 -14 6 -22 14 -24 20 -79 36 -124 36 -101 0 -175 -80 -164
-177 9 -81 66 -134 150 -141 51 -4 77 3 160 46 4 2 7 -6 7 -17 0 -19 6 -21 60
-21 l60 0 0 183 c0 170 -2 186 -22 227 -32 62 -72 83 -167 86 -42 2 -89 0
-106 -5z m149 -292 c32 -25 35 -68 6 -94 -12 -11 -41 -20 -74 -23 -45 -4 -57
-1 -75 17 -27 27 -27 75 -1 101 28 28 108 28 144 -1z"/>
<path fill="#000" d="M9485 996 c-96 -44 -141 -128 -133 -248 6 -85 30 -140 82 -186 83
-73 232 -68 304 10 l22 24 -25 24 -25 23 -26 -26 c-43 -43 -134 -49 -190 -12
-64 42 -90 180 -48 260 44 85 150 113 228 60 29 -20 41 -23 57 -15 25 14 24
32 -4 58 -59 55 -159 67 -242 28z"/>
<path fill="#000" d="M9960 1004 c-46 -20 -87 -59 -113 -109 -30 -55 -31 -202 -3 -255 41
-77 103 -118 191 -127 67 -7 112 8 168 58 139 121 96 381 -72 438 -47 15 -129
13 -171 -5z m132 -54 c20 -6 50 -26 67 -45 101 -116 35 -325 -104 -325 -112 0
-182 110 -154 240 13 63 49 106 104 125 49 17 43 17 87 5z"/>
<path fill="#000" d="M10535 1003 c-16 -8 -40 -25 -52 -36 l-23 -20 0 31 c0 31 -2 32 -40
32 l-40 0 0 -245 0 -245 40 0 40 0 0 183 0 183 28 27 c35 34 77 46 118 35 56
-15 59 -23 62 -235 l4 -193 34 0 34 0 0 184 0 184 30 26 c41 34 93 48 132 34
50 -18 58 -53 58 -253 l0 -175 35 0 35 0 0 201 c0 162 -3 207 -16 234 -38 81
-166 85 -247 8 -26 -26 -27 -26 -42 -7 -8 10 -15 22 -15 26 0 4 -13 14 -30 23
-37 19 -107 19 -145 -2z"/>
<path fill="#000" d="M12450 770 l0 -250 41 0 40 0 -3 190 c-2 129 0 186 7 175 6 -8 53
-93 105 -190 l95 -175 48 0 47 0 0 250 0 250 -46 0 -47 0 7 -187 7 -188 -86
155 c-47 85 -93 170 -102 188 -15 29 -21 32 -65 32 l-48 0 0 -250z"/>
<path fill="#000" d="M12980 985 l0 -35 70 0 70 0 0 -215 0 -215 45 0 45 0 0 215 0 215 75
0 75 0 0 35 0 35 -190 0 -190 0 0 -35z"/>
<path fill="#000" d="M13500 770 l0 -250 155 0 155 0 0 35 0 35 -110 0 -110 0 0 75 0 75
90 0 90 0 0 40 0 40 -90 0 -90 0 0 65 0 64 108 3 107 3 3 33 3 32 -155 0 -156
0 0 -250z"/>
<path fill="#000" d="M13980 770 l0 -250 40 0 41 0 -3 190 c-2 129 0 186 7 175 6 -8 53
-93 105 -190 l95 -175 48 0 47 0 0 250 0 250 -47 0 -46 0 6 -186 c5 -121 3
-183 -3 -179 -6 3 -10 11 -10 17 0 6 -42 86 -92 179 l-93 169 -47 0 -48 0 0
-250z"/>
<path fill="#000" d="M14500 985 l0 -35 75 0 75 0 0 -215 0 -215 45 0 45 0 0 215 0 214 73
3 72 3 3 33 3 32 -195 0 -196 0 0 -35z"/>
<path fill="#000" d="M6960 1002 c0 -4 42 -116 94 -247 l93 -240 -19 -37 c-17 -35 -22 -38
-62 -38 l-44 0 -7 -51 c-5 -39 -4 -54 6 -60 40 -25 158 8 193 54 18 24 256
602 256 623 0 2 -30 4 -67 4 l-68 0 -60 -165 c-33 -90 -63 -161 -66 -157 -4 4
-33 78 -64 165 l-58 157 -64 0 c-34 0 -63 -4 -63 -8z"/>
<path fill="#000" d="M9206 604 c-9 -8 -16 -24 -16 -35 0 -23 34 -59 55 -59 21 0 55 36 55
58 0 43 -63 67 -94 36z"/>
</g>
</svg>
