<?xml version="1.0" standalone="no"?>
<!DOCTYPE svg PUBLIC "-//W3C//DTD SVG 20010904//EN"
 "http://www.w3.org/TR/2001/REC-SVG-20010904/DTD/svg10.dtd">
<svg version="1.0" xmlns="http://www.w3.org/2000/svg"
 width="417.000000pt" height="405.000000pt" viewBox="0 0 417.000000 405.000000"
 preserveAspectRatio="xMidYMid meet">

<g transform="translate(0.000000,405.000000) scale(0.100000,-0.100000)"
fill="#000000" stroke="none">
<path d="M1142 3894 c-29 -7 -67 -21 -85 -30 -303 -154 -406 -515 -227 -799
54 -84 119 -142 215 -192 310 -160 680 7 780 352 22 76 16 256 -11 325 -25 63
-94 168 -140 212 -54 51 -147 105 -223 128 -76 24 -229 26 -309 4z"/>
<path d="M2173 3776 c-85 -39 -93 -168 -14 -214 21 -11 29 -22 25 -34 -2 -9 0
-19 6 -23 7 -4 14 2 17 14 4 14 13 21 30 21 35 0 92 37 104 67 5 13 9 42 9 64
0 83 -97 141 -177 105z"/>
<path d="M2845 3621 c-48 -29 -67 -57 -72 -104 -10 -90 54 -160 144 -159 59 2
112 41 133 100 13 38 12 45 -6 89 -35 85 -127 119 -199 74z"/>
<path d="M2402 3528 c6 -18 28 -21 28 -4 0 9 -7 16 -16 16 -9 0 -14 -5 -12
-12z"/>
<path d="M2592 3429 c2 -6 8 -10 13 -10 5 0 11 4 13 10 2 6 -4 11 -13 11 -9 0
-15 -5 -13 -11z"/>
<path d="M3082 3298 c5 -15 28 -18 29 -3 0 6 -7 12 -17 13 -10 3 -15 -1 -12
-10z"/>
<path d="M2080 3245 c0 -8 5 -15 10 -15 6 0 10 7 10 15 0 8 -4 15 -10 15 -5 0
-10 -7 -10 -15z"/>
<path d="M2893 3184 c-8 -21 13 -42 28 -27 13 13 5 43 -11 43 -6 0 -13 -7 -17
-16z"/>
<path d="M3491 3160 c-97 -23 -158 -130 -131 -229 12 -44 66 -106 107 -122 63
-24 164 -1 206 46 46 51 60 135 33 198 -17 43 -76 93 -123 106 -42 12 -45 12
-92 1z"/>
<path d="M3010 3025 c0 -8 5 -15 10 -15 6 0 10 7 10 15 0 8 -4 15 -10 15 -5 0
-10 -7 -10 -15z"/>
<path d="M2575 3010 c-11 -17 5 -32 21 -19 7 6 11 15 8 20 -7 12 -21 11 -29
-1z"/>
<path d="M892 2878 c4 -30 43 -33 43 -3 0 13 -8 21 -23 23 -20 3 -23 0 -20
-20z"/>
<path d="M1410 2775 c0 -9 5 -15 11 -13 6 2 11 8 11 13 0 5 -5 11 -11 13 -6 2
-11 -4 -11 -13z"/>
<path d="M814 2659 c-10 -17 13 -36 27 -22 12 12 4 33 -11 33 -5 0 -12 -5 -16
-11z"/>
<path d="M2960 2606 c0 -9 7 -16 16 -16 9 0 14 5 12 12 -6 18 -28 21 -28 4z"/>
<path d="M474 2571 c-241 -69 -401 -315 -365 -563 27 -198 160 -357 350 -421
57 -20 251 -39 251 -25 0 5 10 8 22 8 39 0 188 81 238 130 58 57 111 137 135
205 23 65 31 212 15 284 -40 182 -181 331 -365 386 -67 20 -205 18 -281 -4z"/>
<path d="M1786 2564 c-8 -21 1 -34 25 -34 14 0 19 7 19 25 0 29 -34 36 -44 9z"/>
<path d="M910 2550 c0 -11 6 -20 13 -20 19 0 27 10 20 26 -8 21 -33 17 -33 -6z"/>
<path d="M3580 2550 c0 -5 7 -10 15 -10 8 0 15 5 15 10 0 6 -7 10 -15 10 -8 0
-15 -4 -15 -10z"/>
<path d="M2582 2448 c2 -15 10 -23 23 -23 13 0 21 8 23 23 3 18 -1 22 -23 22
-22 0 -26 -4 -23 -22z"/>
<path d="M3360 2420 c0 -5 7 -10 15 -10 8 0 15 5 15 10 0 6 -7 10 -15 10 -8 0
-15 -4 -15 -10z"/>
<path d="M3790 2361 c0 -6 5 -13 10 -16 6 -3 10 1 10 9 0 9 -4 16 -10 16 -5 0
-10 -4 -10 -9z"/>
<path d="M1454 2309 c-3 -6 -2 -15 4 -21 13 -13 32 -2 32 18 0 16 -26 19 -36
3z"/>
<path d="M1954 2296 c-9 -24 4 -48 23 -44 24 4 24 52 0 56 -9 2 -20 -4 -23
-12z"/>
<path d="M3781 2288 c-98 -28 -162 -113 -162 -213 0 -199 234 -298 375 -158
64 63 84 168 47 249 -24 53 -91 109 -146 123 -51 13 -68 13 -114 -1z"/>
<path d="M3590 2155 c0 -8 5 -15 10 -15 6 0 10 7 10 15 0 8 -4 15 -10 15 -5 0
-10 -7 -10 -15z"/>
<path d="M1520 2085 c0 -8 7 -15 15 -15 8 0 15 7 15 15 0 8 -7 15 -15 15 -8 0
-15 -7 -15 -15z"/>
<path d="M2647 2014 c-9 -9 4 -34 18 -34 14 0 27 25 18 34 -4 3 -12 6 -18 6
-6 0 -14 -3 -18 -6z"/>
<path d="M2954 1979 c-10 -17 13 -36 27 -22 12 12 4 33 -11 33 -5 0 -12 -5
-16 -11z"/>
<path d="M3335 1811 c-3 -5 -1 -12 5 -16 12 -7 30 2 30 16 0 12 -27 12 -35 0z"/>
<path d="M3647 1793 c-12 -11 -8 -23 8 -23 8 0 15 7 15 15 0 16 -12 20 -23 8z"/>
<path d="M3747 1703 c-12 -11 -8 -23 8 -23 8 0 15 7 15 15 0 16 -12 20 -23 8z"/>
<path d="M1002 1673 c5 -25 28 -28 28 -4 0 12 -6 21 -16 21 -9 0 -14 -7 -12
-17z"/>
<path d="M2357 1663 c-12 -11 -8 -23 8 -23 8 0 15 7 15 15 0 16 -12 20 -23 8z"/>
<path d="M1695 1589 c-10 -15 1 -23 20 -15 9 3 13 10 10 16 -8 13 -22 13 -30
-1z"/>
<path d="M816 1543 c-11 -11 -6 -23 9 -23 8 0 15 4 15 9 0 13 -16 22 -24 14z"/>
<path d="M1007 1504 c-8 -8 1 -24 14 -24 5 0 9 7 9 15 0 15 -12 20 -23 9z"/>
<path d="M2670 1417 c0 -19 10 -27 26 -20 21 8 17 33 -6 33 -11 0 -20 -6 -20
-13z"/>
<path d="M806 1352 c-3 -6 -1 -14 5 -17 15 -10 25 3 12 16 -7 7 -13 7 -17 1z"/>
<path d="M3422 1330 c-90 -34 -163 -123 -177 -216 -28 -191 165 -357 349 -299
191 60 253 293 118 447 -62 70 -200 102 -290 68z"/>
<path d="M1030 1270 c0 -5 5 -10 10 -10 6 0 10 5 10 10 0 6 -4 10 -10 10 -5 0
-10 -4 -10 -10z"/>
<path d="M1292 1219 c2 -6 8 -10 13 -10 5 0 11 4 13 10 2 6 -4 11 -13 11 -9 0
-15 -5 -13 -11z"/>
<path d="M1890 1196 c0 -9 7 -16 16 -16 9 0 14 5 12 12 -6 18 -28 21 -28 4z"/>
<path d="M1110 1162 c-146 -38 -258 -169 -280 -325 -31 -214 114 -411 331
-449 116 -20 253 25 339 111 40 41 89 122 105 175 4 14 8 16 19 7 7 -6 16 -8
19 -4 13 12 7 23 -13 23 -17 0 -18 5 -13 50 22 188 -121 378 -315 419 -71 15
-114 13 -192 -7z"/>
<path d="M1602 1058 c6 -18 28 -21 28 -4 0 9 -7 16 -16 16 -9 0 -14 -5 -12
-12z"/>
<path d="M1820 985 c0 -8 5 -15 10 -15 6 0 10 7 10 15 0 8 -4 15 -10 15 -5 0
-10 -7 -10 -15z"/>
<path d="M2465 850 c-4 -6 -3 -16 3 -22 13 -13 23 4 13 21 -7 10 -10 10 -16 1z"/>
<path d="M1937 834 c-8 -8 1 -24 14 -24 5 0 9 7 9 15 0 15 -12 20 -23 9z"/>
<path d="M2662 773 c-10 -4 -10 -8 -1 -19 15 -18 25 -18 32 0 6 16 -11 26 -31
19z"/>
<path d="M2348 757 c-89 -25 -167 -92 -207 -176 -35 -74 -37 -192 -4 -263 94
-207 362 -257 522 -97 66 66 86 119 86 224 0 80 -3 97 -30 149 -66 131 -227
202 -367 163z"/>
<path d="M3095 720 c-7 -12 2 -30 16 -30 12 0 12 27 0 35 -5 3 -12 1 -16 -5z"/>
<path d="M1880 500 c0 -5 5 -10 10 -10 6 0 10 5 10 10 0 6 -4 10 -10 10 -5 0
-10 -4 -10 -10z"/>
</g>
</svg>
