<svg version="1.0" xmlns="http://www.w3.org/2000/svg"
 width="1280.000000pt" height="913.000000pt" viewBox="0 0 1280.000000 913.000000"
 preserveAspectRatio="xMidYMid meet">
<g transform="translate(0.000000,913.000000) scale(0.100000,-0.100000)"
fill="#000000" stroke="none">
<path d="M655 9119 c-311 -46 -573 -290 -639 -599 -15 -68 -16 -415 -14 -3995
l3 -3920 22 -63 c47 -134 117 -244 210 -333 92 -88 159 -129 288 -175 l80 -29
5800 0 5800 0 88 34 c191 73 343 209 431 387 18 38 42 96 52 129 18 58 19 174
19 4010 l0 3950 -28 80 c-16 44 -47 112 -70 150 -49 85 -188 226 -270 274 -79
46 -198 87 -291 100 -96 14 -11390 13 -11481 0z m739 -582 c115 -53 205 -170
224 -293 34 -212 -105 -405 -320 -445 -162 -30 -336 61 -414 217 -26 54 -29
68 -29 164 0 88 4 113 23 154 47 103 135 183 241 218 79 26 199 19 275 -15z
m1508 -5 c79 -38 149 -110 186 -190 24 -50 27 -69 27 -162 0 -94 -3 -111 -28
-161 -57 -118 -157 -195 -284 -219 -85 -17 -159 -6 -242 36 -237 119 -288 426
-103 617 83 86 167 118 293 114 74 -3 96 -8 151 -35z m1492 0 c83 -39 149
-105 189 -190 29 -61 32 -76 32 -162 0 -82 -4 -103 -27 -153 -75 -160 -252
-258 -413 -228 -174 32 -294 153 -326 325 -34 188 99 385 296 437 17 5 65 7
107 5 61 -3 92 -11 142 -34z m5327 -2662 c128 -24 229 -101 286 -219 25 -50
28 -67 28 -161 0 -96 -3 -110 -29 -165 -58 -118 -168 -197 -299 -216 -89 -12
-1236 -11 -1317 2 -130 21 -255 119 -301 237 -17 43 -23 78 -23 142 0 109 27
179 95 254 62 67 122 103 202 121 77 17 1271 21 1358 5z m2080 -1573 c88 -43
143 -98 186 -185 36 -71 38 -82 38 -166 0 -81 -3 -98 -32 -158 -39 -84 -109
-155 -188 -194 l-60 -29 -1680 -3 c-1864 -3 -1731 -7 -1835 65 -141 99 -201
271 -152 431 39 123 135 219 257 258 32 10 390 12 1725 11 l1685 -2 56 -28z
m-1027 -1522 c86 -18 140 -50 204 -120 69 -76 96 -145 96 -255 0 -121 -27
-185 -113 -271 -48 -48 -82 -72 -126 -90 l-60 -24 -1205 0 -1205 0 -58 23
c-112 45 -209 161 -237 281 -47 201 103 426 306 461 27 4 562 8 1189 9 962 0
1151 -2 1209 -14z"/>
</g>
</svg>
