<?xml version="1.0" encoding="utf-8"?>
<!-- Generator: Adobe Illustrator 19.2.1, SVG Export Plug-In . SVG Version: 6.00 Build 0)  -->
<svg version="1.1" id="layer" xmlns="http://www.w3.org/2000/svg" xmlns:xlink="http://www.w3.org/1999/xlink" x="0px" y="0px"
	 viewBox="0 0 652 652" style="enable-background:new 0 0 652 652;" xml:space="preserve">
<style type="text/css">
	.st0{fill:#645A53;}
	.st1{fill:#EA5252;}
</style>
<g id="Page-1_1_">
	<g id="logo-coral">
		<g id="Page-1">
			<path id="Fill-1" class="st0" d="M573.5,382.8h17.2l29.8-75.5h-17l-12.3,37.6l-13-37.6h-19l22.6,54.5L573.5,382.8z M488,325.2
				v38.7h-17.4v-56.6h12.2l3.6,4.9c4.7-4,9.8-6.3,15.6-6.3c7.8,0,13.7,2.3,17.4,8c5.3-4.8,10.9-8,18-8c13.4,0,21.2,6.9,21.2,25.7
				v32.2h-17.4v-30.2c0-8.7-3.5-11.2-9.1-11.2c-3.3,0-6,0.9-9.1,2.9c0.2,2,0.3,4.1,0.3,6.4v32.2h-17.4v-30.2
				c0-8.7-3.5-11.2-9.2-11.2C493.6,322.5,491,323.2,488,325.2L488,325.2z M427.4,330h22.3c-1.2-7.4-5.2-10.9-11.1-10.9
				C433.6,319.2,428.8,322.1,427.4,330L427.4,330z M439.9,365c-16.7,0-30.1-8.2-30.1-30c0-20.3,13-29.1,27.9-29.1
				c18,0,26.1,12.6,26.1,32.5h-36.4c1.2,9.8,7.3,12.6,15.3,12.6c7.8,0,13.8-1.9,18.5-5.1l-2.4,13.8C454.3,363.2,448.9,365,439.9,365
				L439.9,365z M375.2,350.4c4,0,6.9-0.7,10-3v-24.6c-2.7-1.7-5.5-2.4-9.5-2.4c-8.5,0-13.3,5.7-13.3,15.3
				C362.4,345,367.4,350.4,375.2,350.4L375.2,350.4z M388.6,359.7c-4.5,3.4-9.7,5.5-17,5.5c-15.5,0-26.7-9.6-26.7-29.2
				c0-19.6,12.9-30.1,29.4-30.1c3.8,0,7.6,0.6,11,1.9v-24h17.4v80.2h-11L388.6,359.7z M271.3,330.4v-42h18V330c0,15,6.7,18,15.9,18
				c10,0,15.2-4.4,15.2-18v-41.6h18.1v42c0,24.7-10.8,35.1-34.2,35.1C282.6,365.4,271.3,356.5,271.3,330.4L271.3,330.4z"/>
			<path id="Fill-4" class="st1" d="M225.3,333.5c-0.7-0.6-1.6-1-2.4-1.2c-5.3,5.3-11.7,10.8-17.5,14.6c-2.6,1.8-6,2.6-8.2,2.6
				c-5.1,0-7.3-4.8-7.9-12.5c-0.9-10.3-1.5-22.7-1.5-41.8c0-19.6-4.4-32.9-16.3-33.9c-0.5,0-1-0.1-1.5-0.1
				c-7.3,0-10.8,3.7-15.4,13.2c-4,8.1-10.1,20-21.6,42.4c-9.9,19.3-20.9,36.4-30.4,48.3c-2.6,3.3-4.7,5.5-6.7,6.8
				c-1.3,0.9-2.6,1.3-3.9,1.3c-3.7,0-6.5-3.2-7.4-10.5c-0.2-1.7-0.3-3.7-0.3-6c0-15.1,5.7-39.7,15.6-76c7.3-26.3,4.2-44.3-11.7-44.3
				c0,0-0.1,0-0.1,0c0,0-0.1,0-0.1,0l0,0c-3.6,0-6.6,1.3-9.4,3.6c-2.8,2.2-5.7,7-8.3,13.5c-3,7.3-21.1,43.6-49.8,62.2
				c-0.3,7.1,3.7,14.2,11.8,15c7.4,0.7,12.7-2.4,19.5-7c-0.5,2.3-1,4.4-1.4,6.3c-0.5,2.3-0.9,4.3-1.3,5.9c-0.5,2.4-0.8,3.9-0.9,4.3
				c-0.9,4.3-1.6,8.4-2.1,12.3c-4.1,36.3,12.8,54.2,32.5,54.2c3.3,0,6.6-0.4,9.8-1.2c21.7-5.5,42.6-30.4,67.3-87.7
				c-0.4,6.2-0.4,12.1-0.1,17.5c1.6,32.8,14.6,42.7,33,42.7c13.9,0,26.9-7.2,33.5-16.2c4.8-6.4,6.8-13.4,6.8-18.9
				C228.8,338.6,227.5,335.2,225.3,333.5"/>
		</g>
	</g>
</g>
</svg>
