<?xml version="1.0" standalone="no"?>
<!DOCTYPE svg PUBLIC "-//W3C//DTD SVG 20010904//EN"
 "http://www.w3.org/TR/2001/REC-SVG-20010904/DTD/svg10.dtd">
<svg version="1.0" xmlns="http://www.w3.org/2000/svg"
 width="225.000000pt" height="46.000000pt" viewBox="0 0 225.000000 46.000000"
 preserveAspectRatio="xMidYMid meet">

<g transform="translate(0.000000,46.000000) scale(0.100000,-0.100000)"
fill="#ff3b00" stroke="none">
<path d="M978 302 l-27 -62 -410 0 c-267 0 -411 -3 -411 -10 0 -7 146 -10 418
-10 l418 0 18 37 18 38 30 -95 c16 -52 33 -98 37 -103 4 -4 20 34 35 85 31
104 34 103 62 -15 10 -42 21 -74 24 -70 4 5 20 45 36 91 16 45 31 82 34 82 3
0 17 -42 31 -92 l26 -93 31 68 31 67 375 0 c328 0 376 2 376 15 0 13 -49 15
-384 15 l-383 0 -18 -46 c-21 -56 -26 -50 -56 67 -12 48 -25 86 -29 84 -3 -2
-19 -44 -35 -94 -16 -50 -32 -88 -36 -84 -3 5 -14 42 -24 83 -10 41 -21 81
-25 88 -4 8 -18 -26 -35 -82 -16 -53 -31 -96 -34 -96 -3 0 -20 44 -36 97 l-30
96 -27 -61z"/>
</g>
</svg>
